<svg width="101" height="100" viewBox="0 0 101 100" fill="none" xmlns="http://www.w3.org/2000/svg">
<path d="M23.9375 18.75C23.0625 18.75 22.375 19.5344 22.375 20.5344V23.2156C22.375 24.2156 23.0625 25 23.9375 25C24.8125 25 25.5 24.2156 25.5 23.2156V20.5313C25.5 19.5344 24.8125 18.75 23.9375 18.75Z" fill="#452F2B"/>
<path d="M97.375 51.3188C97.375 33.2657 82.6781 18.6782 64.5625 18.6782H52.5C52.4294 18.6783 52.3591 18.6699 52.2906 18.6532C53.1632 17.3519 53.6278 15.8199 53.625 14.2532C53.6246 13.1999 53.4164 12.1571 53.0123 11.1845C52.6082 10.2118 52.0161 9.3285 51.2701 8.58505C50.524 7.84161 49.6386 7.25267 48.6646 6.85199C47.6905 6.45131 46.647 6.24675 45.5937 6.25004C44.5037 6.24893 43.4248 6.46973 42.4229 6.89899C41.4209 7.32826 40.5168 7.95699 39.7656 8.74691C36.9223 8.04037 33.9455 8.07372 31.1187 8.84379L8.80624 14.9063H8.79374C7.3137 15.3101 6.00683 16.188 5.07329 17.4055C4.13976 18.6229 3.63102 20.1128 3.62499 21.6469V23.2313C3.61922 27.0672 4.70645 30.8253 6.75937 34.0657V39.4063C6.75937 40.0625 7.32187 40.625 7.97812 40.625H11.7906C12.1656 40.625 12.5062 40.4438 12.7312 40.1688C13.7969 40.875 14.9312 41.4844 16.125 41.9844V41.9907H13.8781C11.6781 41.9907 9.87499 43.7938 9.87499 45.9969C9.87499 48.1969 11.6781 50 13.8781 50H16.8281C18.4844 55.6563 22.925 60.275 28.625 61.9282V63.9157L27.3437 63.4532C27.3248 63.4513 27.3066 63.4448 27.2906 63.4344C27.2758 63.4246 27.2584 63.4191 27.2406 63.4188L27.1406 63.3844C25.3554 62.7421 23.4651 62.442 21.5687 62.5C13.4875 62.7719 6.89687 69.3938 6.76249 77.5125C6.72892 79.5414 7.09925 81.5566 7.85193 83.441C8.60461 85.3254 9.7246 87.0412 11.1467 88.4886C12.5688 89.936 14.2646 91.0861 16.1354 91.8719C18.0062 92.6576 20.0146 93.0635 22.0437 93.0657H65.9562C74.425 93.0657 81.5812 87.525 84 79.8625C92.125 72.925 97.375 62.0969 97.375 51.3188ZM43.9344 13.6094C44.0696 13.2807 44.2996 12.9996 44.5951 12.8021C44.8907 12.6045 45.2383 12.4994 45.5937 12.5C46.6031 12.5 47.375 13.2938 47.375 14.2532C47.373 14.5609 47.2884 14.8624 47.1301 15.1262C46.9718 15.3901 46.7455 15.6066 46.475 15.7532L43.3812 17.4813L46.7937 22.1125L46.825 22.15C48.1812 23.875 50.2625 24.9313 52.5 24.9313H64.5625C79.2594 24.9313 91.125 36.75 91.125 51.3188C91.125 61.3032 85.575 71.5282 77.4062 77.0375L76.8125 77.4438C72.3225 78.3949 67.6557 78.0658 63.3437 76.4938L34.875 66.1813V59.5438C38.425 59.2532 41.4719 57.9657 43.7219 55.7594C46.2969 53.2282 47.6687 49.6438 47.6687 45.4094C47.6687 44.995 47.5041 44.5976 47.2111 44.3046C46.9181 44.0115 46.5206 43.8469 46.1062 43.8469C45.6918 43.8469 45.2944 44.0115 45.0014 44.3046C44.7084 44.5976 44.5437 44.995 44.5437 45.4094C44.5437 48.9563 43.4094 51.6875 41.5312 53.5282C39.7594 55.2719 37.1875 56.3532 33.9125 56.4688L32.0937 56.2688C27.2187 55.7313 23.1969 51.675 22.4875 46.675H26.4687C29.4656 46.675 32.0937 45.1032 33.5812 42.7594L33.5906 42.7407C33.7969 42.4125 33.9781 42.0688 34.1375 41.7094L35.3562 38.9657C35.9875 38.0844 36.2937 36.9657 36.2937 35.6563C36.2937 32.7688 34.1344 30.4782 31.8812 29.0188C29.5687 27.525 26.65 26.5625 24.2187 26.5625H20.0625C19.206 26.5616 18.3692 26.3058 17.6586 25.8278C16.9479 25.3498 16.3956 24.6711 16.0719 23.8782L14.4344 19.85L32.7562 14.875C35.0954 14.2347 37.5815 14.3953 39.8187 15.3313L42.7562 16.5625L43.9344 13.6094ZM33.1656 35.6563C33.1656 36.6407 32.9062 37.0844 32.6656 37.3219H24.0312C17.8125 37.3219 12.5312 33.3219 10.6281 27.7782C11.6969 27.1219 12.5812 26.1844 13.1687 25.0313L13.1781 25.0625C13.7367 26.4299 14.6897 27.6 15.9158 28.4237C17.1419 29.2474 18.5854 29.6874 20.0625 29.6875H24.2187C25.9437 29.6875 28.2812 30.4125 30.1844 31.6438C32.1469 32.9125 33.1656 34.3875 33.1656 35.6563Z" fill="#452F2B"/>
</svg>
