<svg width="101" height="100" viewBox="0 0 101 100" fill="none" xmlns="http://www.w3.org/2000/svg">
<path d="M50.5 39.1289C49.5733 37.4131 48.5291 35.7633 47.375 34.1914V21.875C47.375 21.0462 47.7042 20.2513 48.2903 19.6653C48.8763 19.0792 49.6712 18.75 50.5 18.75C51.3288 18.75 52.1237 19.0792 52.7097 19.6653C53.2958 20.2513 53.625 21.0462 53.625 21.875V34.1914C52.4709 35.7633 51.4268 37.4131 50.5 39.1289ZM91.3984 19.7188C89.9531 17.8516 87.1562 15.625 82.1406 15.625C75.5586 15.625 67.1172 20.0313 59.5586 27.4063C57.3975 29.5009 55.4129 31.7703 53.625 34.1914V70.3125C53.625 71.1413 53.2958 71.9362 52.7097 72.5222C52.1237 73.1083 51.3288 73.4375 50.5 73.4375C49.6712 73.4375 48.8763 73.1083 48.2903 72.5222C47.7042 71.9362 47.375 71.1413 47.375 70.3125V34.1914C45.5921 31.771 43.6127 29.5016 41.457 27.4063C33.8945 20.0313 25.4531 15.625 18.8594 15.625C13.8438 15.625 11.0469 17.8516 9.60157 19.7188C6.9375 23.1445 4.84375 29.125 9.51953 47.5312C11.8828 56.8398 17.1406 60.4219 21.4844 61.7578C19.1156 65.6043 18.3563 70.2287 19.3708 74.6306C20.3853 79.0326 23.0921 82.8582 26.9055 85.2798C30.7189 87.7014 35.3324 88.5244 39.7479 87.5707C44.1635 86.617 48.026 83.9633 50.5 80.1836C52.974 83.9633 56.8365 86.617 61.2521 87.5707C65.6676 88.5244 70.2811 87.7014 74.0945 85.2798C77.9079 82.8582 80.6147 79.0326 81.6292 74.6306C82.6437 70.2287 81.8844 65.6043 79.5156 61.7578C83.8594 60.4297 89.1133 56.8398 91.4805 47.5312C94.1055 37.2031 96.1445 25.8203 91.3984 19.7188Z" fill="#452F2B"/>
</svg>
