<svg width="101" height="100" viewBox="0 0 101 100" fill="none" xmlns="http://www.w3.org/2000/svg">
<mask id="mask0_373_590" style="mask-type:luminance" maskUnits="userSpaceOnUse" x="11" y="6" width="79" height="88">
<path d="M63 59.7835C63 72.9168 57.4042 91.6668 50.5 91.6668C43.5958 91.6668 38 72.9168 38 59.7835C38 52.0793 43.5958 45.8335 50.5 45.8335C57.4042 45.8335 63 52.0793 63 59.7835Z" fill="white" stroke="white" stroke-width="4"/>
<path d="M24.4125 35.417C29.6417 35.417 42.1667 40.0816 42.1667 45.8337C42.1667 51.5857 29.6417 56.2503 24.4125 56.2503C19.1833 56.2503 13 51.5857 13 45.8337C13 40.0816 19.1833 35.417 24.4125 35.417ZM76.5875 35.417C71.3583 35.417 58.8333 40.0816 58.8333 45.8337C58.8333 51.5857 71.3583 56.2503 76.5875 56.2503C81.8167 56.2503 88 51.5857 88 45.8337C88 40.0816 81.8167 35.417 76.5875 35.417Z" stroke="white" stroke-width="4"/>
<path d="M60.9167 29.1667C60.9167 23.4137 56.253 18.75 50.5 18.75C44.747 18.75 40.0833 23.4137 40.0833 29.1667V35.4167C40.0833 41.1696 44.747 45.8333 50.5 45.8333C56.253 45.8333 60.9167 41.1696 60.9167 35.4167V29.1667Z" fill="white" stroke="white" stroke-width="4"/>
<path d="M58.8333 20.8335C58.8333 17.5183 60.1503 14.3389 62.4945 11.9947C64.8387 9.65046 68.0181 8.3335 71.3333 8.3335M44.25 20.8335C44.25 13.9293 37.7208 8.3335 29.6667 8.3335" stroke="white" stroke-width="4" stroke-linecap="round"/>
</mask>
<g mask="url(#mask0_373_590)">
<path d="M0.5 0H100.5V100H0.5V0Z" fill="#452F2B"/>
</g>
</svg>
