<svg width="101" height="100" viewBox="0 0 101 100" fill="none" xmlns="http://www.w3.org/2000/svg">
<path d="M67.6234 61.4297C68.8457 61.3981 70.0073 60.8904 70.8606 60.0148C71.7139 59.1391 72.1915 57.9648 72.1915 56.7422C72.1915 55.5195 71.7139 54.3452 70.8606 53.4696C70.0073 52.594 68.8457 52.0862 67.6234 52.0547C66.4012 52.0862 65.2396 52.594 64.3863 53.4696C63.533 54.3452 63.0554 55.5195 63.0554 56.7422C63.0554 57.9648 63.533 59.1391 64.3863 60.0148C65.2396 60.8904 66.4012 61.3981 67.6234 61.4297Z" fill="#452F2B"/>
<path d="M88.4859 47.678C90.5031 36.6905 87.1703 5.18579 82.6813 3.49047C75.5609 0.798287 63.3547 13.6077 56.8266 21.3264C54.6813 20.7202 52.5609 20.3842 50.5016 20.3842C48.4422 20.3842 46.3203 20.7202 44.175 21.3264C37.6437 13.6077 25.4391 0.798287 18.3172 3.49047C13.8297 5.18422 10.4953 36.6905 12.5141 47.6795C7.10781 55.778 3.625 64.2545 3.625 70.9217C32.6016 70.9217 31.2953 96.8748 50.5 96.8748C69.7047 96.8748 68.3953 70.9217 97.375 70.9217C97.375 64.2545 93.8906 55.778 88.4859 47.678ZM39.4125 50.042C43.1734 55.8092 38.3375 64.7389 38.3375 64.7389C20.9547 66.4967 17.9266 48.6748 17.9266 48.6748C26.7969 45.8436 35.0172 43.3045 39.4125 50.042ZM19.1891 8.8936C26.2391 15.0858 29.2109 22.2514 30.2313 28.6577C29.3141 29.3483 28.4047 30.0717 27.5063 30.8264C26.0191 27.1049 23.6937 23.7764 20.7109 21.0998C20.7109 21.0998 21.5156 25.7358 21.3687 31.3889C20.2828 30.1592 18.875 29.1655 17.0406 28.842C17.0406 28.842 18.2953 34.7655 16.8125 41.8186C15.6562 43.2561 14.5609 44.7264 13.5203 46.2139C13.0734 34.1748 16.3266 11.3405 19.1891 8.8936ZM4.55938 69.8514C19.9703 61.1436 30.8297 64.0202 38.1156 69.7639C37.3258 71.428 36.6518 73.1445 36.0984 74.9014C35.3672 77.2967 34.8641 79.8811 34.925 82.492C24.2891 68.7998 4.55938 69.8514 4.55938 69.8514ZM47.7234 89.9186C46.7797 90.9373 45.3328 91.4842 43.8547 91.4561C42.3734 91.4405 40.8672 90.878 39.6359 89.8795C38.3969 88.8842 37.4422 87.4545 36.8625 85.8248C35.6906 82.5295 35.9625 78.6858 36.8047 75.1295C37.2303 73.3888 37.7727 71.6786 38.4281 70.0108C41.0984 72.1764 43.2797 74.7123 45.0109 77.192C43.6812 77.4733 42.4656 77.9061 41.7922 78.5858C40.5516 79.8373 41.5094 82.942 44.8203 85.6233C46.2391 86.7733 47.6156 87.3795 48.8547 87.6545C48.6641 88.517 48.3062 89.2952 47.7234 89.9186ZM81.8109 8.8936C84.6703 11.3389 87.9234 34.1733 87.4781 46.2139C86.4301 44.7125 85.3321 43.2466 84.1859 41.8186C82.7031 34.767 83.9578 28.8436 83.9578 28.8436C82.1234 29.167 80.7172 30.1608 79.6297 31.3905C79.4828 25.7373 80.2891 21.1014 80.2891 21.1014C77.3064 23.7785 74.9806 27.1067 73.4922 30.828C72.6035 30.082 71.6959 29.3588 70.7703 28.6592C71.7891 22.2514 74.7609 15.0858 81.8109 8.8936ZM61.5875 50.042C65.9828 43.303 74.2031 45.842 83.0719 48.6748C83.0719 48.6748 80.0438 66.4967 62.6609 64.7389C62.6609 64.7405 57.8266 55.8108 61.5875 50.042ZM64.1359 85.8264C63.5594 87.4561 62.6016 88.8858 61.3625 89.8811C60.1328 90.8795 58.6281 91.442 57.1453 91.4577C55.6687 91.4858 54.2188 90.9389 53.2781 89.9202C52.6953 89.2983 52.3375 88.5202 52.1453 87.6561C53.3844 87.3811 54.7578 86.7764 56.1797 85.6248C59.4844 82.9436 60.4484 79.8389 59.2078 78.5873C58.5297 77.9077 57.3156 77.4748 55.9875 77.1936C57.7203 74.7139 59.9031 72.178 62.5703 70.0123C63.2203 71.6827 63.7781 73.3873 64.1937 75.1311C65.0359 78.6858 65.3109 82.5295 64.1359 85.8264ZM66.0734 82.4936C66.1344 79.8811 65.6312 77.2983 64.9016 74.903C64.3482 73.1461 63.6742 71.4295 62.8844 69.7655C70.1687 64.0202 81.0297 61.1436 96.4422 69.853C96.4406 69.8514 76.7078 68.7999 66.0734 82.4936Z" fill="#452F2B"/>
<path d="M33.375 61.4297C34.6182 61.4297 35.8105 60.9358 36.6896 60.0568C37.5686 59.1777 38.0625 57.9854 38.0625 56.7422C38.0625 55.499 37.5686 54.3067 36.6896 53.4276C35.8105 52.5486 34.6182 52.0547 33.375 52.0547C32.1318 52.0547 30.9395 52.5486 30.0604 53.4276C29.1814 54.3067 28.6875 55.499 28.6875 56.7422C28.6875 57.9854 29.1814 59.1777 30.0604 60.0568C30.9395 60.9358 32.1318 61.4297 33.375 61.4297Z" fill="#452F2B"/>
</svg>
