<svg width="101" height="100" viewBox="0 0 101 100" fill="none" xmlns="http://www.w3.org/2000/svg">
<path d="M43.3719 55.2749C43.3719 56.5181 42.878 57.7104 41.9989 58.5895C41.1199 59.4685 39.9276 59.9624 38.6844 59.9624C37.4412 59.9624 36.2489 59.4685 35.3698 58.5895C34.4907 57.7104 33.9969 56.5181 33.9969 55.2749C33.9969 54.0317 34.4907 52.8394 35.3698 51.9603C36.2489 51.0813 37.4412 50.5874 38.6844 50.5874C39.9276 50.5874 41.1199 51.0813 41.9989 51.9603C42.878 52.8394 43.3719 54.0317 43.3719 55.2749ZM25.5 71.8749C26.3288 71.8749 27.1237 71.5457 27.7097 70.9596C28.2958 70.3736 28.625 69.5787 28.625 68.7499C28.625 67.9211 28.2958 67.1262 27.7097 66.5402C27.1237 65.9541 26.3288 65.6249 25.5 65.6249C24.6712 65.6249 23.8763 65.9541 23.2903 66.5402C22.7042 67.1262 22.375 67.9211 22.375 68.7499C22.375 69.5787 22.7042 70.3736 23.2903 70.9596C23.8763 71.5457 24.6712 71.8749 25.5 71.8749Z" fill="#452F2B"/>
<path d="M97.375 60.6375C97.5564 60.1998 97.6208 59.7223 97.5616 59.2522C97.5024 58.782 97.3218 58.3354 97.0375 57.9563L95.6813 56.1906C95.209 55.5686 94.9072 54.834 94.8058 54.0596C94.7044 53.2852 94.8069 52.4977 95.1031 51.775L97.1406 46.7188C97.374 46.1564 97.4102 45.5316 97.2434 44.9461C97.0766 44.3606 96.7166 43.8487 96.2219 43.4938L92.6594 40.9469C92.0725 40.5315 91.5935 39.9818 91.2624 39.3436C90.9313 38.7053 90.7578 37.9971 90.7562 37.2781V31.6438C90.7546 30.9237 90.4681 30.2336 89.9592 29.7242C89.4504 29.2148 88.7606 28.9275 88.0406 28.925H81.7281C81.0577 28.9261 80.3956 28.7774 79.79 28.4898C79.1845 28.2021 78.6508 27.7828 78.2281 27.2625L74.3219 22.5125C73.947 22.0545 73.4334 21.7306 72.8586 21.5897C72.2837 21.4488 71.6786 21.4985 71.1344 21.7313L65.2594 24.3094C64.375 24.6844 63.425 24.7844 62.5094 24.5813L56.4313 23.2906C55.9642 23.1941 55.4801 23.2217 55.0271 23.3709C54.5741 23.5201 54.1683 23.7855 53.85 24.1406L49.7812 28.6875C49.3592 29.1635 48.8417 29.5453 48.2624 29.808C47.683 30.0708 47.0549 30.2086 46.4188 30.2125H40.375C39.8735 30.2114 39.3818 30.3511 38.9559 30.6158C38.5299 30.8804 38.1868 31.2593 37.9656 31.7094L36.2687 35C35.4875 36.5313 33.925 37.4781 32.2281 37.4781H29.4781C28.9601 37.4816 28.4533 37.6298 28.0149 37.9058C27.5765 38.1819 27.2239 38.5749 26.9969 39.0406L25.6063 42.0969C24.9281 43.5563 23.0938 44.7125 21.4969 44.7125H18.85C18.13 44.7142 17.4399 45.0007 16.9305 45.5095C16.4211 46.0184 16.1337 46.7081 16.1312 47.4281V55.3156C16.1076 55.6463 16.0961 55.9778 16.0969 56.3094V59.2781C16.0954 59.5574 16.0181 59.831 15.8734 60.0699C15.7287 60.3087 15.5219 60.5038 15.275 60.6344L6.91875 64.6875L6.88437 64.7063C4.39687 65.9438 3.625 68.475 3.625 70.3438C3.625 73.3656 4.71875 77.3 7.62812 80.5125C10.6219 83.8156 15.2906 86.0938 21.9062 86.0938H25.95L24.3188 89.6656L24.2937 89.7219C24.0339 90.3552 23.9341 91.0429 24.0033 91.724C24.0724 92.4051 24.3084 93.0586 24.6903 93.6268C25.0722 94.195 25.5882 94.6603 26.1927 94.9816C26.7973 95.3029 27.4717 95.4702 28.1563 95.4688H36.2812C37.9844 95.4688 39.3813 94.4438 40.0438 93.1156L40.0719 93.0625L43.2313 86.0938H46.1L47.8375 94.1875C47.8907 94.4521 48.0348 94.6898 48.2449 94.8593C48.4549 95.0288 48.7176 95.1195 48.9875 95.1156H57.7469C57.9199 95.1131 58.0903 95.0728 58.2461 94.9976C58.4019 94.9223 58.5394 94.8139 58.649 94.68C58.7585 94.546 58.8375 94.3898 58.8803 94.2221C58.9231 94.0545 58.9288 93.8795 58.8969 93.7094L57.25 86.0938H62.3656L60.7344 93.7031C60.7009 93.8741 60.7055 94.0504 60.7477 94.2195C60.79 94.3885 60.869 94.5462 60.979 94.6813C61.0891 94.8164 61.2275 94.9256 61.3845 95.0012C61.5415 95.0768 61.7132 95.117 61.8875 95.1188H70.6625C70.9339 95.1239 71.1984 95.0335 71.4098 94.8632C71.6212 94.693 71.766 94.4538 71.8187 94.1875L73.5375 86.0938H75.4688V91.3125C75.4688 93.6 77.3375 95.4688 79.625 95.4688H86.9062C89.1937 95.4688 91.0625 93.6 91.0625 91.3125V77.5938L96.0531 73.7781C96.6108 73.3703 96.9884 72.762 97.1062 72.0813C97.1781 71.5484 97.0956 71.0062 96.8688 70.5188L95.8156 68.2781C95.5444 67.7065 95.398 67.0837 95.3861 66.4512C95.3743 65.8186 95.4972 65.1907 95.7469 64.6094L97.3781 60.6406L97.375 60.6375ZM22.3844 55.5781H29.2719C29.7989 55.5835 30.3127 55.4127 30.7317 55.0929C31.1506 54.773 31.4507 54.3224 31.5844 53.8125C31.9896 52.1963 32.9405 50.7696 34.2764 49.7737C35.6122 48.7778 37.251 48.2738 38.9156 48.3469C42.5812 48.5156 45.6031 51.4719 45.8094 55.1375C45.9058 56.7792 45.4424 58.405 44.495 59.7491C43.5476 61.0933 42.1723 62.0763 40.5938 62.5375C40.5625 62.5469 40.5312 62.5531 40.5125 62.5719C40.4935 62.5738 40.4753 62.5802 40.4594 62.5906C40.4441 62.5995 40.427 62.6048 40.4094 62.6063C40.3598 62.6236 40.3085 62.6352 40.2562 62.6406C40.2062 62.65 40.1531 62.6594 40.1031 62.675C44.075 71.6375 53.0062 77.75 63.6656 77.75H84.5281C84.7197 78.9698 84.8158 80.2027 84.8156 81.4375V89.2188H81.7219V83.8438C81.7219 82.7829 81.3004 81.7655 80.5503 81.0153C79.8002 80.2652 78.7827 79.8438 77.7219 79.8438H39.2031L34.9531 89.2188H31.3937L35.675 79.8438H21.9062C16.8344 79.8438 13.925 78.1563 12.2625 76.3156C11.752 75.7521 11.3133 75.1276 10.9562 74.4563C11.3427 74.6404 11.764 74.7397 12.192 74.7475C12.62 74.7553 13.0446 74.6714 13.4375 74.5015C13.8304 74.3316 14.1824 74.0796 14.4698 73.7624C14.7572 73.4452 14.9734 73.0702 15.1039 72.6625C15.2344 72.2549 15.2761 71.824 15.2263 71.3989C15.1765 70.9737 15.0363 70.5642 14.8151 70.1977C14.5939 69.8313 14.2969 69.5164 13.9439 69.2742C13.591 69.0321 13.1903 68.8682 12.7688 68.7938L18.0188 66.25L18.0531 66.2313C19.3415 65.5834 20.4247 64.5907 21.1822 63.3636C21.9398 62.1365 22.3419 60.7233 22.3438 59.2812V56.3125C22.3438 56.0656 22.3594 55.8219 22.3844 55.5781ZM65.8906 38.2313C65.6566 38.4724 65.3556 38.6378 65.0266 38.7062C64.6976 38.7747 64.3556 38.7429 64.0448 38.6151C63.734 38.4873 63.4687 38.2693 63.283 37.9892C63.0973 37.7091 62.9998 37.3798 63.0031 37.0438V32.625C63.0031 31.675 63.75 30.9281 64.7 30.9281C65.65 30.9281 66.4 31.675 66.4 32.625V37.0375C66.3901 37.4843 66.2076 37.9099 65.8906 38.225V38.2313ZM80.6406 52.8875C80.3995 52.6534 80.2341 52.3525 80.1656 52.0235C80.0972 51.6945 80.129 51.3525 80.2568 51.0417C80.3846 50.7309 80.6026 50.4656 80.8827 50.2799C81.1628 50.0942 81.4921 49.9967 81.8281 50H86.2438C87.1969 50 87.9437 50.75 87.9437 51.6969C87.9463 51.9208 87.904 52.143 87.8195 52.3504C87.7349 52.5578 87.6098 52.7462 87.4514 52.9046C87.2931 53.0629 87.1047 53.188 86.8973 53.2726C86.6899 53.3571 86.4677 53.3994 86.2438 53.3969H81.8312C81.6094 53.3954 81.39 53.3495 81.1861 53.262C80.9822 53.1746 80.7947 53.0472 80.6406 52.8875ZM74.125 43.2563C73.9636 43.0995 73.8353 42.912 73.7477 42.7048C73.66 42.4976 73.6149 42.275 73.6149 42.05C73.6149 41.825 73.66 41.6024 73.7477 41.3952C73.8353 41.188 73.9636 41.0005 74.125 40.8438L77.25 37.7531C77.4066 37.5927 77.5937 37.4652 77.8004 37.3781C78.007 37.2911 78.2289 37.2462 78.4531 37.2462C78.6773 37.2462 78.8993 37.2911 79.1059 37.3781C79.3125 37.4652 79.4996 37.5927 79.6562 37.7531C79.8177 37.9098 79.946 38.0973 80.0336 38.3045C80.1212 38.5117 80.1664 38.7344 80.1664 38.9594C80.1664 39.1843 80.1212 39.407 80.0336 39.6142C79.946 39.8214 79.8177 40.0089 79.6562 40.1656L76.5344 43.2563C76.3788 43.4232 76.1892 43.5548 75.9784 43.6421C75.7676 43.7295 75.5405 43.7705 75.3125 43.7625C75.0902 43.7656 74.8697 43.7222 74.6652 43.635C74.4607 43.5478 74.2767 43.4188 74.125 43.2563Z" fill="#452F2B"/>
</svg>
