<svg width="101" height="100" viewBox="0 0 101 100" fill="none" xmlns="http://www.w3.org/2000/svg">
<path d="M27.7852 4.59375C26.0078 10.5586 24.5625 16.6328 25.3047 22.4805C26.125 28.8672 29.4062 35.1563 38.1367 41.1719C27.668 55.7813 21.3203 81.0938 26.5547 95.4102C28.6836 84.8633 29.3281 76.3086 37.0039 67.168C52.1406 62.168 61.2031 59.8242 64.4063 42.6172C65.6172 39.7461 66.8672 38.8477 70.6367 37.793C72.707 37.2266 74.9727 36.3281 74.9531 34.043C74.9141 24.4141 69.4258 20.6836 63.7031 20.7813C57.9609 20.8789 51.9844 24.8047 50.9297 30.5078C49.7578 30.8594 48.6055 31.3867 47.4727 32.0703C35.1875 23.5352 31.4375 15.3008 27.7852 4.59375ZM6.75586 20.8984C8.86523 26.2109 11.9199 31.5625 16.3652 35.7617C21.1055 40.2344 27.3945 43.4375 36.0664 44.0039C29.3281 39.2773 25.3633 34.1797 23.332 28.9258C17.5898 26.7969 12.3027 24.043 6.75586 20.8984ZM65.3633 26.0352C65.9946 26.0372 66.5995 26.2889 67.0459 26.7353C67.4923 27.1818 67.744 27.7866 67.7461 28.418C67.744 29.0493 67.4923 29.6542 67.0459 30.1006C66.5995 30.547 65.9946 30.7987 65.3633 30.8008C64.732 30.7987 64.1271 30.547 63.6807 30.1006C63.2342 29.6542 62.9825 29.0493 62.9805 28.418C62.9825 27.7866 63.2342 27.1818 63.6807 26.7353C64.1271 26.2889 64.732 26.0372 65.3633 26.0352ZM77.082 36.9922C76.3984 37.9883 75.6953 38.9844 73.9375 39.5703C80.5586 44.5117 89.3867 54.5117 94.25 60.0781C92.0625 53.5938 83.3516 42.7734 77.082 36.9922Z" fill="#452F2B"/>
</svg>
