<svg width="101" height="100" viewBox="0 0 101 100" fill="none" xmlns="http://www.w3.org/2000/svg">
<path d="M49.6436 14.4981C34.5932 14.5098 19.8668 24.6102 14.1553 31.8852C0.787695 48.9121 -6.71953 83.4359 48.1969 74.4549C64.4053 71.8043 74.658 56.3041 76.8219 42.535C84.5125 45.2326 96.2018 42.0631 96.4514 35.067C96.7859 25.6865 80.3127 15.6539 70.9131 23.2037C64.4211 16.893 56.9936 14.4924 49.6436 14.4981ZM86.6326 34.3301C87.0988 34.3301 87.5459 34.5153 87.8756 34.8449C88.2052 35.1746 88.3904 35.6217 88.3904 36.0879C88.3904 36.5541 88.2052 37.0012 87.8756 37.3309C87.5459 37.6605 87.0988 37.8457 86.6326 37.8457C86.1664 37.8457 85.7193 37.6605 85.3897 37.3309C85.06 37.0012 84.8748 36.5541 84.8748 36.0879C84.8748 35.6217 85.06 35.1746 85.3897 34.8449C85.7193 34.5153 86.1664 34.3301 86.6326 34.3301ZM91.9604 45.2977C90.2205 46.1854 88.301 46.8 86.2848 47.1027C90.5738 55.707 92.0322 65.1867 95.193 74.1402C95.7322 67.7928 95.6984 55.5914 91.9604 45.2977ZM47.0809 78.4035C45.9098 78.6953 44.7278 78.9416 43.5377 79.1418L47.8125 88.0867C43.9732 88.0764 40.1342 88.1667 36.2996 88.3576L33.9867 79.7219C32.727 79.6613 31.4816 79.5461 30.2553 79.3773L32.7158 88.565C31.3285 88.6549 29.9236 88.7543 28.4846 88.8732L28.7744 92.3768C43.6709 91.1443 55.7197 91.5525 64.5955 92.3752L64.9197 88.8748C61.0891 88.5197 56.6799 88.2428 51.7312 88.134L47.0809 78.4035Z" fill="#452F2B"/>
</svg>
