<svg width="101" height="100" viewBox="0 0 101 100" fill="none" xmlns="http://www.w3.org/2000/svg">
<path d="M63.7875 35.9766C61.7063 35.9766 60.0312 38.0672 60.0312 40.6609C60.0312 43.2609 61.7063 45.3516 63.7875 45.3516C65.8563 45.3516 67.5313 43.2609 67.5313 40.6609C67.5313 38.0672 65.8563 35.9766 63.7875 35.9766ZM37.2141 35.9766C35.1469 35.9766 33.4688 38.0656 33.4688 40.6609C33.4688 43.2609 35.1469 45.3516 37.2141 45.3516C39.2937 45.3516 40.9687 43.2609 40.9687 40.6609C40.9687 38.0656 39.2937 35.9766 37.2141 35.9766Z" fill="#452F2B"/>
<path d="M97.375 23.1141C95.1719 23.0156 93.7891 22.1359 92.6547 20.7844C92.4313 16.2156 90.8094 11.8078 88.4531 9.89375C87.1297 8.81875 85.2641 8.275 82.9078 8.275C82.7188 8.275 82.5234 8.28906 82.3313 8.29531C75.6984 4.74219 68.7688 8.14219 68.7688 8.14219C69.2219 5.71563 68.0812 4.41562 68.9391 3.125C56.0781 3.125 50.5062 8.53438 50.5 8.53906C50.4969 8.53438 44.925 3.125 32.0641 3.125C32.9219 4.41562 31.7797 5.71563 32.2344 8.14219C32.2344 8.14219 25.3047 4.74062 18.6719 8.29531C18.4797 8.28906 18.2828 8.275 18.0922 8.275C15.7375 8.275 13.8719 8.82031 12.5484 9.89375C10.1906 11.8078 8.56875 16.2156 8.34531 20.7844C7.2125 22.1359 5.82812 23.0156 3.625 23.1141C3.625 23.1141 3.81875 29.0969 9.86094 33.0875C9.86094 33.0875 3.52344 39.1297 4.5875 51.9687C4.5875 51.9687 7.14375 48.85 13.1219 47.675C6.08125 53.5812 10.1875 62.3234 4.975 68.3594C4.975 68.3594 12.1469 69.9344 15.0547 67.8328C13.9156 77.0875 19.5437 80.6969 19.5437 85.2266C25.9297 83.1266 26.8234 76.825 26.8234 76.825C26.8234 88.4938 30.8609 88.0797 30.8609 94.2828C30.8609 94.2828 37.9437 93.1672 40.8531 87.3266C42.0094 92.8344 47.4938 93.4297 50.5 96.875H50.5031C53.5094 93.4297 58.9937 92.8344 60.15 87.3266C63.0578 93.1672 70.1422 94.2828 70.1422 94.2828C70.1422 88.0797 74.1797 88.4938 74.1797 76.825C74.1797 76.825 75.0734 83.1266 81.4578 85.2266C81.4578 80.6984 87.0859 77.0875 85.9469 67.8328C88.8547 69.9344 96.0266 68.3594 96.0266 68.3594C90.8141 62.3234 94.9219 53.5812 87.8812 47.675C93.8594 48.85 96.4141 51.9687 96.4141 51.9687C97.4797 39.1297 91.1406 33.0875 91.1406 33.0875C97.1828 29.0969 97.375 23.1141 97.375 23.1141ZM16.9203 17.6719C14.8078 19.3922 13.5531 26.6156 17.8969 29.7266C17.3702 30.6768 16.8736 31.6435 16.4078 32.625C12.9969 30.3 11.8734 26.6391 11.5531 23.8234C10.9844 18.8438 12.6281 13.8563 14.5203 12.3203C15.2609 11.7188 16.4969 11.4 18.0938 11.4C22.3266 11.4 27.7625 13.5938 31.0672 16.4578C29.3797 17.2422 27.7859 18.2625 26.2703 19.4688C23.375 17.2937 18.7359 16.2 16.9203 17.6719ZM56.5078 82.975C56.6531 80.9594 56.1 79.3063 56.1 79.3063C55.6063 82.3031 54.2687 84.4453 54.2687 84.4453C54.3266 81.875 53.0172 80.7734 53.0172 80.7734C51.7969 84.2578 50.5203 85.6109 50.5203 85.6109C50.5203 85.6109 49.2469 84.2594 48.025 80.7734C48.025 80.7734 46.7172 81.875 46.775 84.4453C46.775 84.4453 45.4375 82.3031 44.9437 79.3063C44.9437 79.3063 44.3906 80.9594 44.5344 82.975C44.5344 82.975 34.3906 76.4172 32.8 67.5547C36.0563 71.2125 43.2078 77.1359 50.5031 69.4656C57.8281 77.1656 65.0078 71.1656 68.2453 67.5125C66.6844 76.3969 56.5078 82.975 56.5078 82.975ZM47.8875 54.2719C47.1 53.2094 46.2859 52.1125 45.3531 51.425C44.8703 51.0672 44.4547 50.7687 44.0875 50.5125C45.5484 49.9062 48.525 48.8672 50.5188 48.8672C52.5094 48.8672 55.6313 49.7828 57.2125 50.3094C56.7797 50.6078 56.2719 50.9672 55.6531 51.425C54.7188 52.1141 53.9141 53.2156 53.1359 54.2813C52.2594 55.4781 51.2687 56.8344 50.5266 56.8344H50.5234C49.7828 56.8297 48.775 55.4703 47.8875 54.2719ZM69.2437 65.5078L69.2109 65.6125L69.15 65.7047C69.1172 65.7547 68.9 66.0672 68.5375 66.5094C65.5031 68.7063 58.3 72.5516 52.0625 66.7281V57.5578L58.0312 55.0344C58.9406 54.6156 59.6859 53.4781 59.6859 52.5125L59.6797 49.8125C59.6797 49.8125 56.4609 47.3062 50.5203 47.3062C44.5797 47.3062 41.3422 49.8125 41.3422 49.8125L41.3266 52.5109C41.3266 53.4766 42.0734 54.6156 42.9813 55.0328L48.9375 57.5516V66.7375C42.7516 72.5016 35.6219 68.7641 32.55 66.5609C32.3199 66.2848 32.1014 65.9992 31.8953 65.7047L31.8344 65.6125L31.8016 65.5078C31.5156 64.6172 31.1797 62.8484 31.4375 61.1172C31.6906 59.4359 32.4969 57.8594 32.9187 57.1063C33.4609 56.1375 41.3234 49.8266 41.3422 49.8125C43.8844 45.3328 44.1969 44.8937 46.3875 43.9359C47.3109 43.5344 48.9094 43.3328 50.5094 43.3328C52.1094 43.3328 53.7047 43.5344 54.6297 43.9359C56.8188 44.8922 57.1391 45.3312 59.6828 49.8109C59.6828 49.8109 67.5875 56.1359 68.1297 57.1063C68.5516 57.8594 69.3594 59.4391 69.6094 61.1172C69.8672 62.8484 69.5297 64.6156 69.2437 65.5078ZM76.9562 44.7687C76.2344 48.1625 71.4141 51.5719 69.5422 56.4656C69.5234 56.4297 69.5094 56.3766 69.4922 56.3422C69.0375 55.5312 66.1391 52.9719 60.8688 48.7328C58.4234 44.4344 57.8797 43.6516 55.2516 42.5047C53.7297 41.8406 51.425 41.7703 50.5063 41.7703C49.5844 41.7703 47.2812 41.8406 45.7609 42.5031C43.1219 43.6562 42.5844 44.4391 40.1172 48.7812C34.8859 52.9922 32.0063 55.5359 31.5547 56.3438C31.5344 56.3781 31.5219 56.4344 31.5031 56.4719C29.6219 51.5766 24.7672 48.1656 24.0484 44.7703C23.3141 41.3109 26.4719 33.4328 29.4453 31.7688C29.9781 31.4734 31.8594 31.7688 31.8594 31.7688C32.4156 31.025 35.4297 22.3297 43.2938 20.8953C47.9625 20.0422 50.5203 24.0328 50.5203 24.0328C50.5203 24.0328 53.0438 20.0422 57.7141 20.8953C65.575 22.3297 68.5906 31.025 69.1484 31.7688C69.1484 31.7688 71.0281 31.4734 71.5625 31.7688C74.5328 33.4313 77.6906 41.3094 76.9562 44.7687ZM89.45 23.825C89.1297 26.6406 88.0062 30.3 84.5953 32.625C84.1295 31.6435 83.6329 30.6768 83.1062 29.7266C87.4516 26.6156 86.1953 19.3922 84.0828 17.6719C82.2672 16.2016 77.6281 17.2953 74.7359 19.4688C73.2188 18.2641 71.6266 17.2422 69.9391 16.4578C73.2406 13.5938 78.6766 11.4 82.9094 11.4C84.5078 11.4 85.7437 11.7188 86.4859 12.3203C88.375 13.8563 90.0203 18.8469 89.45 23.825Z" fill="#452F2B"/>
</svg>
