<svg width="101" height="100" viewBox="0 0 101 100" fill="none" xmlns="http://www.w3.org/2000/svg">
<path d="M39.4707 3.7168L36.3828 12.2314L27.0195 8.92949L34.4111 17.4926C30.2154 20.5404 26.9004 24.7328 24.9262 29.6141C23.1598 28.9159 21.2775 28.5576 19.3781 28.5582C19.2473 28.5582 19.1176 28.5547 18.9875 28.5582C10.7934 28.7664 4.21094 35.4932 4.21094 43.7621C4.21094 52.1621 11.0029 58.9721 19.3781 58.9721C23.1 58.9721 26.5057 57.627 29.1438 55.3953C30.5559 56.6961 32.1754 57.8049 33.9594 58.7279C31.4766 61.9924 29.9191 66.0043 29.6869 70.3672C30.6963 71.4678 32.2123 72.5439 34.2463 73.4986C38.3303 75.4146 44.1955 76.6725 50.6832 76.6725C57.1709 76.6725 63.0367 75.4146 67.1201 73.4986C69.158 72.5422 70.6748 71.4639 71.6855 70.3613C71.4633 66.1403 69.9744 62.0842 67.4129 58.7219C69.1937 57.8 70.8123 56.6945 72.2225 55.3957C74.8617 57.6272 78.2721 58.9723 81.9939 58.9723C90.3689 58.9723 97.1551 52.1623 97.1551 43.7623C97.1551 35.3619 90.3691 28.5584 81.9939 28.5584C81.8631 28.5584 81.7334 28.5549 81.6033 28.5584C79.8317 28.6018 78.0817 28.9571 76.4334 29.608C75.2018 26.5645 73.4447 23.7906 71.2822 21.3926L77.2516 20.1113L64.898 16.0586L68.7369 10.5285L55.7607 12.6711C54.0858 12.3612 52.386 12.2058 50.6826 12.207C48.0436 12.207 45.4912 12.5781 43.0717 13.2691L39.4707 3.7168ZM19.2012 32.5684C20.7434 32.5693 22.2687 32.8893 23.6813 33.5084C23.4213 34.5822 23.2256 35.6705 23.0953 36.7676C20.0582 35.0508 16.1613 35.4949 13.5676 38.0982C10.4432 41.2344 10.4432 46.2848 13.5676 49.4201C14.3018 50.1626 15.1756 50.7526 16.1387 51.1562C17.1018 51.5598 18.1351 51.7691 19.1794 51.7719C20.2236 51.7748 21.2581 51.5712 22.2233 51.1728C23.1886 50.7745 24.0656 50.1892 24.8039 49.4508C25.2684 50.4609 25.8182 51.4039 26.4338 52.2891C22.0582 56.0285 15.435 55.8242 11.3033 51.6785C6.95898 47.3187 6.95918 40.2004 11.3033 35.8398C13.4756 33.6598 16.3391 32.5684 19.2012 32.5684ZM82.1711 32.5684C85.0332 32.5684 87.8971 33.6598 90.0691 35.8398C94.4135 40.2004 94.4137 47.3187 90.0691 51.6785C85.9387 55.8234 79.3148 56.0254 74.9383 52.2889C75.5628 51.3907 76.1062 50.4388 76.5619 49.4443C77.2999 50.1841 78.177 50.7706 79.1427 51.1701C80.1083 51.5695 81.1434 51.7739 82.1884 51.7717C83.2334 51.7694 84.2676 51.5604 85.2315 51.1568C86.1954 50.7532 87.0699 50.1629 87.8047 49.4199C90.9291 46.2848 90.9293 41.2344 87.8047 38.098C85.2109 35.4949 81.3141 35.0508 78.2773 36.7676C78.1468 35.6705 77.9512 34.5821 77.6914 33.5082C79.1038 32.8892 80.629 32.5692 82.1711 32.5684ZM38.5734 35.7727C42.6383 35.7727 45.9348 39.075 45.9348 43.1516C45.9348 47.2283 42.6383 50.5371 38.5734 50.5371C34.509 50.5371 31.2129 47.2285 31.2129 43.1518C31.2129 39.0756 34.5092 35.7729 38.5738 35.7729L38.5734 35.7727ZM63.0916 36.383C66.992 36.383 70.1531 39.5568 70.1531 43.4693C70.1531 47.3818 66.9922 50.5557 63.0914 50.5557C59.1902 50.5557 56.023 47.3818 56.023 43.4697C56.023 39.557 59.1902 36.3832 63.0914 36.3832L63.0916 36.383ZM45.2873 51.874L48.8029 52.8447L46.8928 59.7779L43.3772 58.8076L45.2873 51.874ZM56.0783 51.874L57.9889 58.8076L54.4732 59.7783L52.5631 52.8443L56.0783 51.874ZM71.3311 75.342C70.5057 75.8703 69.6143 76.3576 68.6699 76.801C63.9408 79.0201 57.6342 80.3225 50.6832 80.3225C43.732 80.3225 37.4254 79.0201 32.6961 76.801C31.7543 76.3588 30.8641 75.8746 30.041 75.3479C31.9199 84.1365 40.4498 87.5674 50.6832 87.5674C60.9189 87.5674 69.4551 84.1352 71.3313 75.342H71.3311Z" fill="#452F2B"/>
</svg>
