<svg width="101" height="100" viewBox="0 0 101 100" fill="none" xmlns="http://www.w3.org/2000/svg">
<g clip-path="url(#clip0_373_607)">
<path d="M28.8594 38.4961L30.875 39.7461C31.7969 40.332 32.8125 40.625 33.8594 40.625C37.5312 40.625 40.5156 36.8945 40.5156 32.3047V28.125C40.5156 21.2305 36.0312 15.625 30.5156 15.625H20.5C14.9844 15.625 10.5 21.2305 10.5 28.125V32.3047C10.5 36.8945 13.4844 40.625 17.1562 40.625C18.1875 40.625 19.2031 40.332 20.1406 39.7461L22.1562 38.4961L23.4688 37.6758L21.6094 36.1328C20.9062 35.5469 20.5 34.5703 20.5 33.5352V32.8125C20.5 30.2148 22.1719 28.125 24.25 28.125H26.75C28.8281 28.125 30.5 30.2148 30.5 32.8125V33.5352C30.5 34.5703 30.0781 35.5469 29.3906 36.1328L27.5469 37.6758L28.8594 38.4961ZM27.5156 48.1445L25.5 46.875L23.4844 48.125C21.5156 49.3555 19.3438 50 17.1562 50C16.5938 50 16.0469 49.9609 15.5 49.8828V50C15.5 56.8945 19.9844 62.5 25.5 62.5H35.5C38.2656 62.5 40.5 65.293 40.5 68.75C40.5 72.207 38.2656 75 35.5 75H60.5V62.5C60.5 57.8711 62.5156 53.8281 65.5 51.6797C66.9688 50.625 68.6719 50 70.5 50V46.875C70.5 41.6992 73.8594 37.5 78 37.5C79.375 37.5 80.5 38.9062 80.5 40.625V59.375C80.5 61.0938 81.625 62.5 83 62.5C84.375 62.5 85.5 61.0938 85.5 59.375V39.9023C85.5 30.4883 80.6875 22.1289 73.5312 19.1406L72.2031 18.5937C70.9531 18.0664 70.2344 16.4258 70.5781 14.8242C70.9219 13.2227 72.1875 12.2461 73.4844 12.5586L76.5938 13.3398C90.5 16.8164 100.5 32.0703 100.5 49.7852V50C100.5 74.1602 84.8281 93.75 65.5 93.75H40.4062C21.125 93.75 5.5 74.2188 5.5 50.1172V42.3438C3.92188 39.4922 3 36.0352 3 32.3047V27.8516C1.54688 27.207 0.5 25.4883 0.5 23.4375C0.5 20.8398 2.17188 18.75 4.25 18.75H4.6875C7.5 11.3672 13.5156 6.25 20.5 6.25H30.5C37.4844 6.25 43.5 11.3672 46.3125 18.75H46.75C48.8281 18.75 50.5 20.8398 50.5 23.4375C50.5 25.4883 49.4531 27.207 48 27.8516V32.3047C48 32.5781 48 32.8516 47.9844 33.1445C49.8594 31.9336 52 31.2695 54.25 31.2695H55.5C58.2656 31.2695 60.5 34.0625 60.5 37.5195C60.5 40.9766 58.2656 43.7695 55.5 43.7695H54.25C52.1719 43.7695 50.5 45.8594 50.5 48.457V50.0195H59.3125C56.9375 53.3398 55.5 57.7148 55.5 62.5195H50.5C43.8906 62.5195 38.2812 57.168 36.2812 49.7656C35.4844 49.9414 34.6719 50.0195 33.8438 50.0195C31.6406 50.0195 29.4844 49.375 27.5156 48.1445ZM15.5 25C16.163 25 16.7989 25.3292 17.2678 25.9153C17.7366 26.5013 18 27.2962 18 28.125C18 28.9538 17.7366 29.7487 17.2678 30.3347C16.7989 30.9208 16.163 31.25 15.5 31.25C14.837 31.25 14.2011 30.9208 13.7322 30.3347C13.2634 29.7487 13 28.9538 13 28.125C13 27.2962 13.2634 26.5013 13.7322 25.9153C14.2011 25.3292 14.837 25 15.5 25ZM33 28.125C33 27.2962 33.2634 26.5013 33.7322 25.9153C34.2011 25.3292 34.837 25 35.5 25C36.163 25 36.7989 25.3292 37.2678 25.9153C37.7366 26.5013 38 27.2962 38 28.125C38 28.9538 37.7366 29.7487 37.2678 30.3347C36.7989 30.9208 36.163 31.25 35.5 31.25C34.837 31.25 34.2011 30.9208 33.7322 30.3347C33.2634 29.7487 33 28.9538 33 28.125Z" fill="#452F2B"/>
</g>
<defs>
<clipPath id="clip0_373_607">
<rect width="100" height="100" fill="white" transform="translate(0.5)"/>
</clipPath>
</defs>
</svg>
