<svg width="101" height="100" viewBox="0 0 101 100" fill="none" xmlns="http://www.w3.org/2000/svg">
<path fill-rule="evenodd" clip-rule="evenodd" d="M36.8281 23.953C29.2644 26.6629 22.6492 31.5087 17.7844 37.903L17.8313 37.9561L16.5312 39.9311C12.1762 46.5474 9.8616 54.2977 9.875 62.2186C9.875 73.2655 14.25 79.928 21.1625 84.028C28.35 88.2936 38.6 89.9655 50.5 89.9655C62.4 89.9655 72.65 88.2936 79.8375 84.028C86.75 79.928 91.125 73.2655 91.125 62.2155C91.1394 54.2943 88.827 46.5434 84.475 39.9249L83.4656 38.3936C78.6317 31.7516 71.9031 26.7256 64.1625 23.9749C64.1668 23.9666 64.171 23.9583 64.175 23.9499C59.7858 22.385 55.1598 21.588 50.5 21.5936C45.6969 21.5936 41.0938 22.4249 36.8281 23.953ZM7.46875 29.2811C7.46865 25.9458 8.46241 22.6862 10.3232 19.9182C12.184 17.1503 14.8273 14.9996 17.9159 13.7407C21.0045 12.4818 24.3981 12.1718 27.6637 12.8502C30.9292 13.5287 33.9185 15.1649 36.25 17.5499C40.8576 16.0831 45.6646 15.3389 50.5 15.3436C55.3354 15.3397 60.1422 16.0839 64.75 17.5499C67.6559 14.5757 71.5625 12.7862 75.7127 12.5284C79.8628 12.2706 83.9609 13.5627 87.2126 16.1544C90.4642 18.7461 92.6379 22.4527 93.3123 26.5558C93.9866 30.6589 93.1136 34.8663 90.8625 38.3624C95.1382 45.5845 97.3879 53.8257 97.375 62.2186C97.375 75.328 91.9563 84.103 83.0312 89.403C74.3812 94.5342 62.7562 96.2155 50.5 96.2155C38.2438 96.2155 26.6187 94.5342 17.9688 89.403C9.04688 84.103 3.625 75.328 3.625 62.2155C3.625 53.5155 6 45.3593 10.1406 38.3717C8.39184 35.6627 7.46393 32.5056 7.46875 29.2811ZM38.5625 67.5561C39.2719 67.5561 39.85 68.1343 39.85 68.8436C39.85 71.228 41.7719 73.1499 44.1562 73.1499C46.5406 73.1499 48.4625 71.228 48.4625 68.8436C48.4626 68.5682 48.5511 68.3001 48.7149 68.0787C48.8786 67.8573 49.1091 67.6942 49.3724 67.6134C49.6357 67.5327 49.9179 67.5384 50.1777 67.6299C50.4375 67.7214 50.6611 67.8938 50.8156 68.1217C51.0377 68.3601 51.1606 68.6741 51.1594 68.9999C51.1594 70.159 51.6198 71.2706 52.4394 72.0902C53.259 72.9097 54.3706 73.3702 55.5297 73.3702C56.6888 73.3702 57.8004 72.9097 58.62 72.0902C59.4396 71.2706 59.9 70.159 59.9 68.9999C59.9163 68.6698 60.0589 68.3586 60.2982 68.1307C60.5376 67.9029 60.8554 67.7758 61.1859 67.7758C61.5164 67.7758 61.8343 67.9029 62.0736 68.1307C62.313 68.3586 62.4556 68.6698 62.4719 68.9999C62.4729 70.4904 61.9941 71.9417 61.1062 73.1389C60.2184 74.3362 58.9687 75.2158 57.5421 75.6476C56.1155 76.0795 54.5878 76.0406 53.185 75.5367C51.7822 75.0328 50.5789 74.0908 49.7531 72.8499C49.1164 73.74 48.2764 74.4652 47.3029 74.9652C46.3294 75.4653 45.2506 75.7257 44.1562 75.7249C43.2524 75.7257 42.3572 75.5483 41.5219 75.2027C40.6867 74.8572 39.9278 74.3504 39.2886 73.7112C38.6495 73.0721 38.1427 72.3132 37.7971 71.4779C37.4516 70.6427 37.2742 69.7475 37.275 68.8436C37.275 68.1343 37.8531 67.5561 38.5625 67.5561ZM46.9688 58.1249H52.625C55.0625 58.1249 56.2812 61.0624 54.5625 62.7811L51.75 65.5936C51.2402 66.1031 50.5489 66.3894 49.8281 66.3894C49.1073 66.3894 48.4161 66.1031 47.9062 65.5936L45.0938 62.7811C44.7002 62.4089 44.4278 61.9269 44.3121 61.3977C44.1964 60.8685 44.2428 60.3168 44.4451 59.8143C44.6474 59.3118 44.9964 58.8819 45.4465 58.5806C45.8966 58.2793 46.4271 58.1205 46.9688 58.1249ZM40.0625 60.3124C37.8525 62.5187 34.8572 63.758 31.7344 63.758C28.6115 63.758 25.6163 62.5187 23.4062 60.3124C18.8125 55.7186 20.875 50.3124 25.4688 45.7186C30.0625 41.1249 35.4688 39.0624 40.0625 43.6561C42.2689 45.8661 43.5081 48.8614 43.5081 51.9843C43.5081 55.1071 42.2689 58.1024 40.0625 60.3124ZM36.2188 57.5936C35.5874 57.5797 34.9871 57.3171 34.5482 56.8631C34.1094 56.409 33.8674 55.8001 33.875 55.1686V50.6436C33.875 49.3374 34.9125 48.2186 36.2188 48.2186C37.525 48.2186 38.5625 49.2905 38.5625 50.6436V55.1686C38.57 55.4823 38.515 55.7943 38.4009 56.0866C38.2868 56.3789 38.1157 56.6456 37.8977 56.8712C37.6796 57.0968 37.4189 57.2768 37.1307 57.4009C36.8425 57.5249 36.5325 57.5904 36.2188 57.5936ZM76.2063 60.3124C73.9962 62.5187 71.001 63.758 67.8781 63.758C64.7553 63.758 61.76 62.5187 59.55 60.3124C57.3436 58.1024 56.1044 55.1071 56.1044 51.9843C56.1044 48.8614 57.3436 45.8661 59.55 43.6561C64.1437 39.0624 69.55 41.1249 74.1438 45.7186C78.7375 50.3124 80.8 55.7186 76.2063 60.3124ZM65.7375 55.1686C65.7451 55.8001 65.5031 56.409 65.0643 56.8631C64.6254 57.3171 64.0251 57.5797 63.3937 57.5936C63.08 57.5904 62.77 57.5249 62.4818 57.4009C62.1936 57.2768 61.9329 57.0968 61.7148 56.8712C61.4968 56.6456 61.3257 56.3789 61.2116 56.0866C61.0975 55.7943 61.0425 55.4823 61.05 55.1686V50.6436C61.05 49.2905 62.0844 48.2186 63.3937 48.2186C64.7 48.2186 65.7375 49.3374 65.7375 50.6436V55.1686Z" fill="#452F2B"/>
</svg>
