<svg width="101" height="100" viewBox="0 0 101 100" fill="none" xmlns="http://www.w3.org/2000/svg">
<path d="M22.6703 48.3452C26.2058 48.3452 29.0719 45.3791 29.0719 41.7202C29.0719 38.0613 26.2058 35.0952 22.6703 35.0952C19.1348 35.0952 16.2687 38.0613 16.2687 41.7202C16.2687 45.3791 19.1348 48.3452 22.6703 48.3452Z" fill="#452F2B"/>
<path d="M50.4984 50.4295C55.1463 50.4295 58.9141 46.5302 58.9141 41.7201C58.9141 36.9101 55.1463 33.0107 50.4984 33.0107C45.8506 33.0107 42.0828 36.9101 42.0828 41.7201C42.0828 46.5302 45.8506 50.4295 50.4984 50.4295Z" fill="#452F2B"/>
<path d="M33.4859 56.5733C34.5266 56.2999 35.6219 56.4014 36.6734 56.7952C37.7234 57.1952 38.7344 57.8311 39.7266 58.5452C39.0656 57.5202 38.1969 56.5796 37.0562 55.9639C35.8853 55.3072 34.5089 55.1191 33.2047 55.4374C31.9062 55.7718 30.8 56.5202 29.925 57.4139C29.0328 58.2999 28.3719 59.353 27.8203 60.4421C28.7344 59.6249 29.6062 58.8014 30.5266 58.0999C31.4547 57.4061 32.4359 56.8202 33.4859 56.5733ZM26.4437 60.5139C26.2703 60.2296 26.1578 59.8764 26.0047 59.4952C25.833 59.8802 25.7892 60.31 25.8797 60.7218C25.9547 61.1577 26.2625 61.5796 26.6625 61.8218C27.0687 62.0546 27.5187 62.1374 27.9328 62.0921C28.35 62.0577 28.7359 61.9405 29.0891 61.7327C28.2969 61.5374 27.5719 61.4796 27.0656 61.1546C26.8079 60.9966 26.594 60.7763 26.4437 60.5139ZM40.8781 59.053C40.7465 59.2703 40.5649 59.453 40.3484 59.5858C40.1094 59.7421 39.8047 59.8499 39.4703 60.0046C39.7984 60.1718 40.1687 60.2249 40.5547 60.1514C40.9453 60.0936 41.325 59.8155 41.5453 59.4577C41.7531 59.0936 41.825 58.6921 41.775 58.3249C41.7417 57.9641 41.6204 57.617 41.4219 57.3139C41.2156 58.0093 41.1516 58.6311 40.8781 59.053Z" fill="#452F2B"/>
<path d="M35.6391 59.2123C34.985 58.9051 34.2475 58.8238 33.5422 58.981C32.8602 59.1411 32.2277 59.4656 31.7 59.9263C31.175 60.3607 30.7641 60.8763 30.3672 61.4029C30.9797 61.1154 31.4938 60.7138 32.0406 60.4154C32.5906 60.1201 33.1344 59.856 33.7047 59.742C34.2754 59.6168 34.8676 59.6285 35.4328 59.7763C36.0188 59.9154 36.5828 60.2092 37.1766 60.5107C36.7891 59.9484 36.2583 59.5001 35.6391 59.2123Z" fill="#452F2B"/>
<path d="M94.5547 66.2812L80.6203 58.975C81.1937 56.7469 81.5547 54.4344 81.6891 52.0594L97.375 50L81.6891 47.9375C81.5597 45.6039 81.2017 43.2887 80.6203 41.025L94.5578 33.7203L79.3906 37.1859C78.5257 34.9302 77.4369 32.7668 76.1406 30.7281L86.4031 19.4047L73.8719 27.5594C72.2675 25.5538 70.4536 23.7252 68.4609 22.1047L73.9484 8.7875L65.5406 19.9656C63.1934 18.4201 60.6731 17.1552 58.0312 16.1969L58.6234 3.125L54.9109 15.2266C51.9401 14.4523 48.8825 14.0611 45.8125 14.0625L45.7297 14.0641L42.3734 3.125L42.8734 14.1906C39.4355 14.4681 36.0557 15.2412 32.8391 16.4859L27.0469 8.7875L30.6109 17.4328C27.1861 19.035 24.0354 21.1675 21.275 23.7516L14.5953 19.4031L19.8328 25.1828C17.0199 28.1237 14.7269 31.521 13.0516 35.2297L6.44219 33.7156L12.3781 36.8281C10.8273 40.7646 9.98715 44.945 9.89687 49.175L3.625 50L9.89687 50.8234C10.1531 58.6016 11.9703 62.1359 12.3781 63.1703L6.44219 66.2828L12.7797 64.8312C11.4726 65.7721 10.2408 66.8133 9.09531 67.9453C6.3125 70.725 7.56563 72.1937 9.24531 73.8719C10.9219 75.55 12.3891 76.8016 15.1719 74.0219C15.8438 73.35 16.4812 72.4563 17.0484 71.4734C17.9094 72.6408 18.8392 73.7558 19.8328 74.8125L14.5938 80.5938L21.275 76.2453C24.036 78.8297 27.1872 80.9627 30.6125 82.5656L27.0484 91.2109L32.8406 83.5141C36.0574 84.7578 39.4372 85.5298 42.875 85.8063L42.3734 96.875L45.7297 85.9344L45.8125 85.9375C48.9562 85.9375 52.0047 85.5312 54.9109 84.7719L58.6234 96.875L58.0328 83.8016C60.6756 82.8455 63.1962 81.5804 65.5422 80.0328L73.95 91.2109L68.4625 77.8969C68.6484 77.7453 68.8109 77.5687 68.9937 77.4141C69.7625 78.3031 70.5375 79.1391 71.2672 79.8703C75.5578 84.1609 77.8219 82.2266 80.4109 79.6391C81.0359 79.0141 81.6219 78.4078 82.0922 77.7859L86.4047 80.5938L82.8031 76.6203C83.5563 74.9781 83.2625 73.1141 80.6422 70.4953C79.6813 69.5328 78.4234 68.6109 77.0344 67.7797C77.8672 66.3234 78.7766 64.5266 79.3875 62.8141L94.5547 66.2812ZM50.4984 29.0516C57.2578 29.0516 62.7391 34.7266 62.7391 41.7203C62.7391 48.7188 57.2578 54.3906 50.4984 54.3906C43.7375 54.3906 38.2609 48.7172 38.2609 41.7203C38.2609 34.7266 43.7375 29.0516 50.4984 29.0516ZM22.6703 32.0828C27.8125 32.0828 31.9813 36.3984 31.9813 41.7203C31.9813 47.0422 27.8125 51.3578 22.6703 51.3578C17.5281 51.3578 13.3625 47.0422 13.3625 41.7203C13.3625 36.3984 17.5281 32.0828 22.6703 32.0828ZM74.2641 66.3297C70.0125 64.4047 65.4047 63.5625 63.7641 65.2C62 66.9656 64.1328 71.1422 67.0281 74.9844C66.8453 75.1406 66.6766 75.3187 66.4906 75.4719L65.2406 76.4859L63.8203 77.4234C61.6809 78.8355 59.3822 79.9899 56.9719 80.8625L55.5531 81.3734L54.1203 81.7469C51.4406 82.4484 48.6672 82.8063 45.8766 82.8125L45.8172 82.8094H44.5875L43.125 82.6906C39.9874 82.4399 36.9027 81.7357 33.9672 80.6L32.9187 80.1937L31.9359 79.7328C28.808 78.2697 25.9304 76.3224 23.4094 73.9625L22.7625 73.3578L22.0906 72.6547C19.523 69.9712 17.4301 66.8708 15.9016 63.4859L15.5719 62.75L15.2859 62.0266C15.2391 61.9078 15.1797 61.7641 15.1062 61.5922C14.7912 60.8664 14.5184 60.1229 14.2891 59.3656C16.2854 58.992 18.2938 58.6866 20.3109 58.45H20.2344C20.2703 58.45 20.3016 58.4469 20.3375 58.4453C21.4823 58.3066 22.6293 58.1873 23.7781 58.0875C28.4062 57.0734 29.0156 54.2109 33.1938 53.3547C37.1797 52.5406 40.4094 56.9313 46.6766 58.1547L46.5422 58.1562C56.8609 59.0156 66.6594 60.7844 75.7516 63.4547C75.2969 64.4547 74.7703 65.4531 74.2641 66.3297Z" fill="#452F2B"/>
</svg>
