<svg width="101" height="100" viewBox="0 0 101 100" fill="none" xmlns="http://www.w3.org/2000/svg">
<path d="M40.7607 4.60307C28.6527 4.62377 14.7428 12.0872 6.82285 21.2687C6.82285 21.2687 25.2861 19.6304 28.2549 28.1978C33.0498 42.0349 7.98769 40.4697 7.62617 62.1085C7.35391 78.4115 25.0793 95.2644 42.0207 95.2749C42.8437 95.5494 77.5584 95.2749 77.5584 95.2749C81.4223 95.2203 81.583 90.8704 68.0248 88.1193C96.4607 59.2417 51.083 57.0503 51.3342 79.1781C47.8271 75.5056 51.4469 59.6828 70.4147 60.4609C76.8424 65.0468 80.5352 65.8072 87.7115 64.2273C89.0752 63.9271 90.065 59.2146 86.6447 58.9413L80.4377 58.4453C74.9482 53.4302 73.6373 51.3208 79.135 47.222C92.5861 50.749 94.1832 49.5806 94.1772 44.6185C94.1713 39.764 92.3164 26.9167 81.3193 26.2953C79.8152 24.2814 83.2314 18.0839 80.5473 17.9052C76.8336 17.658 70.6875 23.4554 71.5109 26.4574C67.9299 27.972 63.9469 32.5425 59.9582 38.1007C46.4199 43.0675 36.6203 65.9599 36.4914 71.4273C36.3783 35.7954 66.4215 36.155 63.8773 23.6206C61.1293 10.0808 50.793 4.58588 40.7607 4.60307ZM85.0326 33.1972C86.4318 33.1972 87.5662 34.3316 87.5662 35.731C87.5662 37.1302 86.4318 38.2646 85.0326 38.2646C83.6332 38.2646 82.4988 37.1302 82.4988 35.731C82.4988 34.3316 83.6332 33.1972 85.0326 33.1972Z" fill="#452F2B"/>
</svg>
