<svg width="101" height="100" viewBox="0 0 101 100" fill="none" xmlns="http://www.w3.org/2000/svg">
<path d="M79.9859 42.1969C74.725 36.7219 68.5141 33.3891 61.3484 33.1797V42.4422L74.7859 47.8031L79.9859 42.1969Z" fill="#452F2B"/>
<path d="M25.2203 21.5048C27.2974 21.5048 28.9813 19.7545 28.9813 17.5954C28.9813 15.4363 27.2974 13.686 25.2203 13.686C23.1432 13.686 21.4594 15.4363 21.4594 17.5954C21.4594 19.7545 23.1432 21.5048 25.2203 21.5048Z" fill="#452F2B"/>
<path d="M9.35312 18.8908L10.4125 18.3705L10.8094 17.1377L9.75156 17.658L9.35312 18.8908Z" fill="#452F2B"/>
<path d="M94.0328 66.6844C93.3984 66.0984 92.3328 65.5047 91.2766 65.2047C89.6891 56.8906 86.275 49.5438 81.6062 43.9953L75.9281 50.0953L78.6906 64.8703C77.9781 64.925 77.2828 64.9922 76.6328 65.0594L74.1859 50.1047L60.2734 44.2266L46.3547 50.1047L43.9078 65.075C43.2224 64.9997 42.5344 64.9497 41.8453 64.925L44.6219 50.0953L41.3078 46.5422C41.3703 45.9391 41.4297 45.3937 41.4656 45.1578C41.6203 44.6437 41.7578 44.1516 41.9016 43.6469L45.7594 47.8031L59.2234 42.4313V33.1812C53.0937 33.3594 47.65 35.8375 42.9078 39.9719C46.5281 25.8656 46.1625 16.1906 41.7812 11.2062C38.9719 8.00937 34.0437 6.25 27.9062 6.25C18.975 6.25 7.74218 10.1984 4.51874 17.5141C3.47499 19.8844 2.42499 24.6984 7.10624 30.3391L8.63593 32.1813L9.14687 31.8969C9.49531 37.0297 12.3031 42.5984 22.8391 42.5984C23.4562 42.5984 23.6297 42.7875 23.7234 42.8922C25.1766 44.4828 24.8703 50.6422 24.6453 55.1406C24.325 61.5609 24.0219 67.6234 26.9141 70.7906C27.2516 71.1609 27.6312 71.4641 28.0328 71.7328C28.425 73.7031 29.2922 75.3453 30.6906 76.7094C29.4797 80.1297 28.5766 83.7328 28.3219 86.7937C27.2281 87.625 25.8719 90.5453 25.8719 95.4766C25.8719 97.2375 33.5891 97.3812 34.6922 95.675C35.3062 95.7312 35.9625 95.7625 36.6797 95.7625C41.5937 95.7625 47.3734 94.4922 47.6172 94.4359L49.1047 94.1063L48.7328 92.5734C48.4453 91.3969 48.2906 90.0969 48.2172 88.7438C51.7937 88.6891 55.9062 87.9062 55.9062 87.9062C55.4359 86.2406 55.3781 84.2688 55.5219 82.2906C58.7408 82.3598 61.9608 82.3577 65.1797 82.2844C64.525 83.9453 64.3406 85.4437 65.0359 86.3141C66.5844 88.2406 74.4906 88.7516 74.4906 88.7516C74.4141 87.7734 74.5344 86.7156 74.7531 85.6531L74.8047 85.7422C76.1047 87.7125 77.6031 89.3656 79.1125 90.5672C79.3422 91.8953 79.9406 93.5922 81.125 95.4984C81.8266 96.6328 86.6516 92.9531 87.1 91.1047C90.2734 88.4 93.5656 82.8812 95.1141 80.0875L96.1609 78.1984L94.0937 77.8234C92.55 77.5437 91.2187 77.0781 90.1078 76.4375C91.3922 75.0844 92.1922 73.4766 92.5437 71.5531C92.8984 71.9609 93.2484 72.4 93.5828 72.8984C95.3859 75.5906 96.8734 78.675 97.2922 77.1844C97.7141 75.6937 96.4906 68.9547 94.0328 66.6844ZM87.7984 74.4516C87.655 74.2748 87.5195 74.0918 87.3922 73.9031C86.6578 72.7688 86.2937 71.5344 86.125 70.4141H89.7406C89.5375 71.9562 88.9562 73.3031 87.7984 74.4516ZM28.2422 67.3672C25.2656 60.2969 31.7359 39.5484 22.8391 39.5484C14.2375 39.5484 12.0406 35.575 12.0406 30.7219C12.0406 30.7219 12.7859 31.0719 14.1734 31.0719C16.3937 31.0719 20.2578 30.1766 25.3406 25.5109C24.9985 25.5034 24.6563 25.4998 24.3141 25.5C14.4797 25.5 9.32499 28.3469 9.32499 28.3469C0.185932 17.3344 15.4344 9.29687 27.9062 9.29687C32.7656 9.29687 37.2047 10.5172 39.6125 13.2594C45.3906 19.8328 40.9203 36.7844 38.6266 44.3703C38.625 44.3766 38.6234 44.3906 38.6203 44.3969C36.3891 47.2297 34.4406 51.4531 31.4641 52.4484C28.7531 53.3563 29.4234 60.9266 35.5141 64.1328C35.1344 65.3734 34.7078 66.4734 34.2312 67.3672H28.2422ZM36.6781 92.7109C35.3047 92.7109 34.3391 92.6 33.6375 92.4516C32.9418 91.0724 32.1167 89.7623 31.1734 88.5391C31.1234 81.9453 35.5578 71.2266 38.4094 68.0062C38.8703 67.975 39.6109 67.9375 40.4922 67.9375C43.8891 67.9375 46.5109 68.4672 47.8891 69.4062C46.9891 72.7203 44.2875 83.7047 45.5734 91.7375C43.5875 92.1094 39.8781 92.7109 36.6781 92.7109ZM48.8734 78.9375C49.1031 77.4672 49.3641 76.0719 49.6234 74.8266C49.7609 75.225 49.9141 75.6188 50.0937 76C50.6266 77.0781 51.3125 78.0578 52.1375 78.8438C52.2469 78.9484 52.3641 79.0453 52.4766 79.1438C51.2745 79.0931 50.0734 79.0244 48.8734 78.9375ZM66.8672 79.1859C64.6663 79.2548 62.4645 79.2882 60.2625 79.2859C57.8797 79.2859 55.6906 79.2516 53.6625 79.1859C53.3639 78.8302 53.0763 78.4655 52.8 78.0922C52.1634 77.2288 51.6085 76.3082 51.1422 75.3422C50.7206 74.4703 50.3761 73.5632 50.1125 72.6312C50.3281 71.7219 50.5172 70.9719 50.6656 70.4156H70.9344C70.8187 71.0516 70.6875 71.6734 70.5281 72.275C70.2439 73.3308 69.8615 74.3577 69.3859 75.3422C68.9185 76.3079 68.363 77.2285 67.7266 78.0922C67.4562 78.4656 67.1625 78.825 66.8672 79.1859ZM68.05 79.1438C68.1625 79.0453 68.2781 78.9484 68.3891 78.8438C69.2307 78.0217 69.9228 77.0594 70.4344 76C70.6344 75.5734 70.8031 75.1281 70.9516 74.6797C71.0719 76.1078 71.3078 77.5328 71.6984 78.9328C70.4835 79.023 69.2672 79.0933 68.05 79.1438ZM84.8437 89.1359C83.0437 88.2359 81.4047 87.7828 80.3969 87.7016C79.1796 86.6183 78.1114 85.3783 77.2203 84.0141C75.7125 81.7266 72.5109 75.7578 74.2922 68.4094C75.9328 68.1875 79.4062 67.7672 82.1219 67.7672C82.4687 67.7672 82.7906 67.775 83.0859 67.7875C82.9766 69.6609 83.1422 72.7812 84.9391 75.575C86.4 77.8469 88.6172 79.4422 91.5516 80.3391C89.1172 84.4187 86.4531 87.8953 84.8437 89.1359Z" fill="#452F2B"/>
</svg>
