<svg width="101" height="100" viewBox="0 0 101 100" fill="none" xmlns="http://www.w3.org/2000/svg">
<path d="M35.65 45.5377C35.65 47.0689 36.9 48.3189 38.4312 48.3189C39.9625 48.3189 41.2156 47.0689 41.2156 45.5377V40.2814C41.2156 38.7502 39.9656 37.4971 38.4344 37.4971C36.9031 37.4971 35.65 38.7471 35.65 40.2783V45.5377ZM18.25 64.2721C17.5965 64.9149 16.7166 65.2751 15.8 65.2751C14.8834 65.2751 14.0035 64.9149 13.35 64.2721L18.25 59.3752C19.5875 60.7564 19.5875 62.9377 18.25 64.2721Z" fill="#452F2B"/>
<path d="M36.4375 21.1909C36.875 20.619 37.4781 20.0752 38.1969 19.5752C38.1088 18.1358 38.0463 16.695 38.0094 15.2534C37.9986 14.7065 37.9986 14.1596 38.0094 13.6127V13.5346C38.0406 10.9909 41.1031 9.75649 42.9094 11.4909L43.0031 11.5752C43.537 12.0458 44.0641 12.524 44.5844 13.0096L45.225 13.6034L47.1375 13.3034C52.0094 12.544 57.9125 12.6784 64.375 15.8471C68.7812 18.0034 72.8562 21.5221 75.9219 25.8502C78.3469 26.594 80.5906 28.1659 82.4687 30.0909C84.4925 32.2001 86.1431 34.6379 87.35 37.3002C89.5335 37.9236 91.504 39.1342 93.0469 40.8002C95.5031 43.4471 97.0812 47.4127 97.0812 53.0284V86.6221C97.0812 89.8159 96.2906 92.7565 93.6312 94.6627C92.3156 95.6034 90.725 96.1409 88.9906 96.4471L89.1406 96.8752H67.3594L67.3469 96.8252H30.8625L31.3 93.3159V93.2877L31.3094 93.2377C31.3409 93.0045 31.3784 92.7722 31.4219 92.5409C31.5 92.0815 31.6281 91.4346 31.8219 90.6221C32.2031 89.0034 32.8469 86.7315 33.8969 84.0377C35.6623 79.5327 37.9755 75.262 40.7844 71.3221L19.2406 76.0221H19.2281C16.8875 76.5252 14.2656 76.3471 11.9375 75.1596C8.70312 73.5127 6.13437 70.7596 5.73125 66.9502C5.34062 63.2502 7.10625 59.4815 10.3687 55.944C11.7437 54.4565 13.5125 52.494 15.6 50.1784C19.4396 45.905 23.3074 41.657 27.2031 37.4346C23.0281 35.6002 21.8531 31.1846 22.6687 30.3721C23.2406 29.7971 24.1375 30.0377 25.2625 30.3409C26.5562 30.6846 28.1531 31.1159 29.9187 30.494L12.4875 8.56899C11.8125 7.71586 12.8844 6.58774 13.7687 7.22211L35.3719 22.6815C35.6937 22.2034 36.05 21.7065 36.4406 21.1909H36.4375ZM42.6406 25.8627L42.6656 25.9065C42.8187 26.1596 42.9844 26.394 43.1656 26.6096C43.6344 27.1596 44.2156 27.5846 44.9281 27.869C35.3531 37.6034 26.525 47.394 20.3344 54.2627L20.3312 54.2659C18.5528 56.2469 16.7643 58.2188 14.9656 60.1815C12.3219 63.0471 11.8219 65.1065 11.9469 66.2971C12.0594 67.3784 12.7906 68.5784 14.775 69.5909C15.6312 70.0284 16.7562 70.1596 17.9125 69.9127H17.9187L22.4625 68.9221C22.543 68.7467 22.6553 68.5878 22.7937 68.4534C23.2781 67.9846 24.0625 67.0815 24.75 65.9909C25.45 64.8815 25.9562 63.7127 26.0531 62.6877C26.0658 62.4785 26.1204 62.2739 26.2138 62.0862C26.3071 61.8986 26.4373 61.7316 26.5966 61.5952C26.7558 61.4589 26.9408 61.356 27.1407 61.2926C27.3405 61.2293 27.551 61.2068 27.7597 61.2265C27.9684 61.2463 28.171 61.3078 28.3555 61.4074C28.5399 61.5071 28.7024 61.6428 28.8333 61.8065C28.9642 61.9703 29.0608 62.1587 29.1173 62.3605C29.1739 62.5624 29.1892 62.7736 29.1625 62.9815C29 64.7065 28.2125 66.3565 27.3969 67.6534C27.3496 67.7288 27.3017 67.8038 27.2531 67.8784L44.8094 64.0471C48.1437 63.2346 51.8062 61.5315 55.1437 59.1846C58.1031 53.0909 60.5281 47.8659 60.9094 42.5377C61.4094 35.3346 59.3844 31.0752 57.2781 28.5565C56.1494 27.2049 54.7672 26.087 53.2094 25.2659L51.4937 25.5252C51.4039 25.2026 51.2625 24.8965 51.075 24.619C51.0182 24.5232 50.9599 24.4284 50.9 24.3346L50.8656 24.3221L50.2906 23.5596C49.2906 22.2284 47.4344 20.4221 45.5344 18.7221L41.1281 14.7846L41.1375 15.1877C41.1625 16.3627 41.2375 18.3002 41.4375 21.3221C41.5969 22.994 41.9062 24.4002 42.4531 25.5065C42.5156 25.6315 42.5781 25.7471 42.6437 25.8627H42.6406ZM41.2656 14.2096L41.2719 14.219L41.125 14.244V14.0877L41.2625 14.2127L41.2656 14.2096ZM50.3656 69.6784L50.0937 69.7221C45.6465 74.5663 42.1294 80.1882 39.7187 86.3065C39.0844 87.9377 38.6219 89.3846 38.2875 90.5752H47.2969C46.2937 82.7659 47.95 75.8721 50.3656 69.6784ZM63.9156 88.3534C64 88.9627 64.0844 89.5784 64.1531 90.2346H67.4937C65.875 75.1502 69.8875 67.0252 74.425 57.8502C75.3625 55.9534 76.3219 54.0096 77.2594 51.9534C82.7281 39.9409 78.6781 33.119 74.3156 29.2784C75.4656 31.244 77.9344 38.8409 75.9094 46.0159C75.0469 49.069 73.0562 53.1346 71.0125 57.3127C68.6281 62.1784 66.175 67.1909 65.3469 70.9252C62.9875 81.5846 63.4437 84.919 63.9156 88.3534ZM78.3906 88.4534C78.4719 89.0627 78.5562 89.6752 78.625 90.3346H81.9469C80.3031 75.0221 84.325 66.5377 87.1562 60.5659C87.6875 59.4377 88.1812 58.4002 88.5844 57.4221C91.125 51.269 91.8562 42.8846 87.4937 39.044C88.6469 41.0096 88.7531 47.6127 86.7312 54.7846C85.8562 57.8815 84.6219 60.119 83.3969 62.3346C82.0094 64.8502 80.6375 67.3346 79.8219 71.0221C77.4625 81.6846 77.9187 85.019 78.3906 88.4534Z" fill="#452F2B"/>
</svg>
