<svg width="40" height="40" viewBox="0 0 40 40" fill="none" xmlns="http://www.w3.org/2000/svg">
<path d="M23.6167 8.33333L31.6667 16.3833V31.6667H8.33333V8.33333H23.6167ZM23.6167 5H8.33333C6.5 5 5 6.5 5 8.33333V31.6667C5 33.5 6.5 35 8.33333 35H31.6667C33.5 35 35 33.5 35 31.6667V16.3833C35 15.5 34.65 14.65 34.0167 14.0333L25.9667 5.98333C25.35 5.35 24.5 5 23.6167 5ZM11.6667 25H28.3333V28.3333H11.6667V25ZM11.6667 18.3333H28.3333V21.6667H11.6667V18.3333ZM11.6667 11.6667H23.3333V15H11.6667V11.6667Z" fill="#452F2B"/>
</svg>
