<svg width="40" height="40" viewBox="0 0 40 40" fill="none" xmlns="http://www.w3.org/2000/svg">
<path d="M33.3333 10H19.9999L17.6499 7.65002C17.0166 7.01669 16.1666 6.66669 15.2833 6.66669H6.66659C4.83325 6.66669 3.34992 8.16669 3.34992 10L3.33325 30C3.33325 31.8334 4.83325 33.3334 6.66659 33.3334H33.3333C35.1666 33.3334 36.6666 31.8334 36.6666 30V13.3334C36.6666 11.5 35.1666 10 33.3333 10ZM8.33325 30C7.41658 30 6.66659 29.25 6.66659 28.3334V15C6.66659 14.0834 7.41658 13.3334 8.33325 13.3334H31.6666C32.5833 13.3334 33.3333 14.0834 33.3333 15V28.3334C33.3333 29.25 32.5833 30 31.6666 30H8.33325Z" fill="#452F2B"/>
<path d="M33.3333 10H19.9999L17.6499 7.65002C17.0166 7.01669 16.1666 6.66669 15.2833 6.66669H6.66659C4.83325 6.66669 3.34992 8.16669 3.34992 10L3.33325 30C3.33325 31.8334 4.83325 33.3334 6.66659 33.3334H33.3333C35.1666 33.3334 36.6666 31.8334 36.6666 30V13.3334C36.6666 11.5 35.1666 10 33.3333 10ZM8.33325 30C7.41658 30 6.66659 29.25 6.66659 28.3334V15C6.66659 14.0834 7.41658 13.3334 8.33325 13.3334H31.6666C32.5833 13.3334 33.3333 14.0834 33.3333 15V28.3334C33.3333 29.25 32.5833 30 31.6666 30H8.33325Z" stroke="#452F2B"/>
</svg>
