<svg width="41" height="40" viewBox="0 0 41 40" fill="none" xmlns="http://www.w3.org/2000/svg">
<path d="M21.265 2.76751C21.0432 2.59458 20.77 2.50067 20.4888 2.50067C20.2075 2.50067 19.9343 2.59458 19.7125 2.76751L1.75 16.7738L3.30375 18.7388L5.5 17.0263V32.5C5.50132 33.1626 5.76514 33.7978 6.23369 34.2663C6.70225 34.7349 7.33736 34.9987 8 35H33C33.6626 34.9987 34.2978 34.7349 34.7663 34.2663C35.2349 33.7978 35.4987 33.1626 35.5 32.5V17.0375L37.6963 18.75L39.25 16.785L21.265 2.76751ZM23 32.5H18V22.5H23V32.5ZM25.5 32.5V22.5C25.4993 21.8372 25.2357 21.2017 24.767 20.733C24.2983 20.2643 23.6628 20.0007 23 20H18C17.3372 20.0007 16.7017 20.2643 16.233 20.733C15.7643 21.2017 15.5007 21.8372 15.5 22.5V32.5H8V15.0775L20.5 5.34001L33 15.09V32.5H25.5Z" fill="#452F2B"/>
</svg>
