<svg width="40" height="40" viewBox="0 0 40 40" fill="none" xmlns="http://www.w3.org/2000/svg">
<path d="M6.66659 33.3334C5.74992 33.3334 4.96547 33.0072 4.31325 32.355C3.65992 31.7017 3.33325 30.9167 3.33325 30V10C3.33325 9.08335 3.65992 8.29891 4.31325 7.64669C4.96547 6.99335 5.74992 6.66669 6.66659 6.66669H33.3333C34.2499 6.66669 35.0349 6.99335 35.6883 7.64669C36.3405 8.29891 36.6666 9.08335 36.6666 10V30C36.6666 30.9167 36.3405 31.7017 35.6883 32.355C35.0349 33.0072 34.2499 33.3334 33.3333 33.3334H6.66659ZM19.9999 21.6667L6.66659 13.3334V30H33.3333V13.3334L19.9999 21.6667ZM19.9999 18.3334L33.3333 10H6.66659L19.9999 18.3334ZM6.66659 13.3334V10V30V13.3334Z" fill="#452F2B"/>
</svg>
