<svg width="41" height="40" viewBox="0 0 41 40" fill="none" xmlns="http://www.w3.org/2000/svg">
<path d="M4.67006 35.1925C4.67125 35.2779 4.68925 35.3621 4.72303 35.4405C4.7568 35.519 4.80569 35.5899 4.8669 35.6494C4.92811 35.709 5.00045 35.7558 5.07977 35.7874C5.1591 35.8189 5.24386 35.8345 5.32923 35.8333H35.6684C35.7538 35.8346 35.8387 35.8191 35.9181 35.7876C35.9975 35.7561 36.07 35.7093 36.1313 35.6497C36.1926 35.5902 36.2415 35.5192 36.2753 35.4407C36.3092 35.3623 36.3272 35.2779 36.3284 35.1925V34.4275C36.3434 34.1967 36.3742 33.0467 35.6159 31.7742C35.1376 30.9717 34.4434 30.2792 33.5526 29.7142C32.4751 29.0308 31.1042 28.5367 29.4459 28.2392C28.6041 28.1207 27.7691 27.9582 26.9442 27.7525C24.7509 27.1925 24.5592 26.6967 24.5576 26.6917C24.5449 26.6427 24.5264 26.5954 24.5026 26.5508C24.4842 26.4592 24.4401 26.1108 24.5251 25.1783C24.7401 22.8092 26.0109 21.4092 27.0317 20.2842C27.3534 19.93 27.6576 19.5942 27.8917 19.2658C28.9026 17.8492 28.9959 16.2367 29.0001 16.1367C29.0039 15.9595 28.9794 15.7828 28.9276 15.6133C28.8276 15.305 28.6417 15.1133 28.5051 14.9717C28.4727 14.9392 28.4413 14.9059 28.4109 14.8717C28.4009 14.86 28.3742 14.8283 28.3984 14.6692C28.4801 14.1564 28.5366 13.64 28.5676 13.1217C28.6142 12.2867 28.6501 11.0383 28.4342 9.82249C28.4025 9.59026 28.3546 9.36053 28.2909 9.13499C28.0634 8.29832 27.6984 7.58332 27.1909 6.99332C27.1034 6.89749 24.9801 4.65999 18.8159 4.20166C17.9634 4.13832 17.1209 4.17249 16.2909 4.21499C16.0454 4.22045 15.8011 4.2506 15.5617 4.30499C14.9251 4.46916 14.7551 4.87249 14.7109 5.09832C14.6367 5.47332 14.7667 5.76332 14.8526 5.95666C14.8651 5.98416 14.8809 6.01832 14.8534 6.10832C14.7109 6.32999 14.4851 6.52999 14.2559 6.71916C14.1892 6.77499 12.6442 8.10832 12.5592 9.84916C12.3301 11.1733 12.3467 13.2358 12.6176 14.6617C12.6342 14.7408 12.6567 14.8575 12.6192 14.9367C12.3276 15.1975 11.9976 15.4933 11.9984 16.1683C12.0017 16.2367 12.0959 17.8483 13.1067 19.2658C13.3401 19.5942 13.6442 19.9292 13.9651 20.2833L13.9667 20.2842C14.9876 21.4092 16.2584 22.8092 16.4734 25.1775C16.5576 26.1108 16.5134 26.4583 16.4959 26.5508C16.4717 26.5954 16.453 26.6426 16.4401 26.6917C16.4392 26.6967 16.2484 27.1908 14.0651 27.75C12.8051 28.0725 11.5651 28.2375 11.5276 28.2417C9.91589 28.5142 8.55339 28.9967 7.47756 29.6758C6.59006 30.2367 5.89423 30.9317 5.41089 31.74C4.63756 33.0317 4.65839 34.2083 4.66923 34.4233V35.1925H4.67006Z" stroke="#452F2B" stroke-width="4" stroke-linejoin="round"/>
</svg>
