<svg width="41" height="40" viewBox="0 0 41 40" fill="none" xmlns="http://www.w3.org/2000/svg">
<path d="M26.3333 23.3334H25.0166L24.55 22.8834C25.5915 21.6733 26.3528 20.248 26.7792 18.7094C27.2056 17.1708 27.2867 15.5569 27.0166 13.9834C26.2333 9.35002 22.3666 5.65002 17.7 5.08335C16.0593 4.8758 14.3929 5.04631 12.8283 5.58183C11.2637 6.11736 9.84236 7.00372 8.67301 8.17307C7.50366 9.34243 6.6173 10.7638 6.08177 12.3284C5.54624 13.893 5.37573 15.5594 5.58329 17.2C6.14996 21.8667 9.84996 25.7334 14.4833 26.5167C16.0569 26.7868 17.6707 26.7057 19.2093 26.2793C20.7479 25.8528 22.1732 25.0916 23.3833 24.05L23.8333 24.5167V25.8334L30.9166 32.9167C31.6 33.6 32.7166 33.6 33.4 32.9167C34.0833 32.2334 34.0833 31.1167 33.4 30.4334L26.3333 23.3334ZM16.3333 23.3334C12.1833 23.3334 8.83329 19.9834 8.83329 15.8334C8.83329 11.6834 12.1833 8.33335 16.3333 8.33335C20.4833 8.33335 23.8333 11.6834 23.8333 15.8334C23.8333 19.9834 20.4833 23.3334 16.3333 23.3334Z" fill="#452F2B"/>
</svg>
