<?xml version="1.0" encoding="UTF-8"?><svg id="Calque_2" xmlns="http://www.w3.org/2000/svg" viewBox="0 0 402.5 200.43"><defs><style>.cls-1{fill:#e9d044;}.cls-2,.cls-3{fill:#40577c;}.cls-3{font-family:IndieFlower, 'Indie Flower';font-size:65.26px;stroke:#40577c;stroke-miterlimit:10;}</style></defs><g id="SLIDE_1"><g><path class="cls-2" d="M110.66,123.73c-12.04,12.75-27.65,17.63-44.34,20.09-4.72,.7-9.48,1.19-14.2,1.85-1.91,.27-2.65-.25-2.72-2.34-.2-6.35,.48-12.57,2.08-18.7,.52-.59,.56-1.33,.62-2.07,2.36-5.47,5.13-10.67,9.49-14.86l-.03-.07c.56,1.72-.8,2.82-1.43,4.1-2.72,5.51-4.83,11.17-5.42,17.35-.13,1.41,.02,1.98,1.62,1.96,13.62-.21,26.99-1.69,39.65-7.21,3.1-1.35,6.06-2.99,8.62-5.14,5.96-5.01,6.12-11.64,4.31-18.44-2.46-9.22-7.53-17.04-13.79-24.14-15.06-17.09-33.64-29.32-54.05-38.98-7.72-3.65-15.51-7.17-23.6-9.93-.83-.28-1.61-.83-3.14-.54,11.01,23.79,23.17,46.59,41.16,65.86-8.03-5.3-14.6-12.29-21.77-18.56-.39-.4-.79-.8-1.18-1.2-10.31-11.26-19.79-23.11-26.56-36.91-.34-1.12-.77-2.2-1.56-3.09C2.71,28.12,1.15,23.44,.17,18.58-.26,16.42,0,15.29,2.52,16.05c.79,.09,1.59,.18,2.38,.27,.48,.16,.95,.37,1.44,.48,17.48,3.86,34.01,10.18,49.69,18.83,14.15,7.81,26.43,18.15,39.04,28.07,4.96,3.91,10.15,7.5,16.26,9.4,3.94,1.22,6.13,.26,8.09-3.31,2.31-4.21,4.95-8.18,8.21-11.7,4.04-4.36,8.72-7.28,15.04-6.38,2.48,.35,4.55,1.68,6.83,2.5,.65,.4,1.29,.81,1.94,1.21,3.45,2.96,6.81,6.01,9.59,9.63,.57,.74,1.25,1.22,2.18,1.5,6.68,2.03,13.06,4.82,19.32,7.89,.5,.58,1.1,1,1.87,1.14,2.29,1.97,5.23,3.18,6.86,5.92-.14,.14-.27,.28-.4,.42-.77-.48-1.54-.96-2.32-1.42-11.91-7.11-24.19-9.54-37.18-2.88-.4,.2-.81,.4-1.21,.6-4.83,2.56-8.84,6.12-12.3,10.29-9.09,10.94-16.59,23.1-25.9,33.87l-1.29,1.35Zm34.11-60.82c-.24-1.87-1.47-2.85-3.26-2.83-2.04,.02-3.17,1.33-3.07,3.35,.1,1.89,1.32,2.92,3.21,2.9,2.14-.03,2.95-1.41,3.12-3.42Z"/><path class="cls-1" d="M101.41,185.88c-5.69-2.93-9.25-7.85-12.25-13.36,1.02,4.65,1.58,9.23,2.11,13.82,.26,2.23,.25,4.46-.27,6.66-.83,3.54-2.69,4.47-6.06,2.96-3.81-1.71-6.2-4.81-8.04-8.42-1.37-2.69-2.22-5.58-3.32-8.43-.35,5.13-.41,10.24-1.52,15.24-.54,2.45-.72,5.71-3.63,6.05-2.97,.34-4.38-2.62-5.38-5.06-2.61-6.37-3.35-13.14-3.76-19.94-.07-1.2-.01-2.41-.21-3.65-1.33,6.79-3.18,13.39-6.02,19.69-.44,.59-.88,1.19-1.33,1.78-3.7,3.01-7.09,1.46-8.3-3.81-.98-4.26-.55-8.48,.3-12.7,.28-1.39,.57-2.78,.85-4.16,.13-.36,.25-.73,.38-1.09,1.81-6.2,3.62-12.39,7.02-18.07-.53,2.49-1.03,4.98-1.6,7.46-1.43,6.24-2.84,12.49-2.9,18.92-.01,1.68-.95,4.17,1.3,4.79,2.07,.57,2.97-1.82,3.9-3.29,3.34-5.26,5.6-11.04,7.77-16.85,.46-1.22,.95-2.42,1.57-3.99,.3,9.31-.24,18.29,1.47,27.14,.21,1.09,.39,2.21,.79,3.25,.42,1.1,.71,2.62,2.13,2.71,1.69,.1,2.32-1.43,2.91-2.73,.85-1.87,1.24-3.89,1.41-5.91,.54-6.5,.21-12.99-.17-19.73,1.59,3.33,3.08,6.53,4.64,9.69,1.84,3.74,3.85,7.4,6.65,10.53,.71,.79,1.51,1.98,2.74,1.61,1.35-.41,1.41-1.83,1.56-3.05,.68-5.5-.07-10.96-.68-16.4-.57-5.14-1.41-10.25-2.13-15.36,.93,.66,1.08,1.82,1.51,2.79,2.94,6.71,6.15,13.27,9.89,19.57,.93,1.57,2,3.07,3.17,4.47,1.09,1.29,2.28,2.96,4.29,2.16,1.92-.76,1.89-2.76,1.96-4.47,.18-4.41-1.5-8.37-3.26-12.25-2.22-4.91-4.91-9.58-7.96-14.15,1.53-.82,2.28,.33,3.14,1.02,3.01,2.42,5.9,4.99,9.43,6.68,.9,.43,1.88,1.12,2.8,.22,.82-.8,.08-1.73-.15-2.56-1.52-5.28-4.16-10.09-6.62-15.23,1.12,.06,1.53,.79,2,1.32,6.68,7.51,12.07,15.81,15.37,25.37,.47,1.35,.85,2.72,.65,4.17-.29,.34-.57,.67-.86,1.01-1.04-.25-2.07-.49-3.11-.73-5.19-3.19-9.07-7.87-13.54-11.88-.22-.53-.54-.72-1.05-.32l.79,.66c1.97,4.2,3.95,8.4,5.92,12.61,.7,2.32,1.62,4.61,2.07,6.98,1.17,6.27-.83,8.07-7.06,6.6-.43-.11-.87-.21-1.3-.32Z"/><path class="cls-1" d="M53.75,5.34c9.32,5.74,18.08,12.23,26.25,19.51,.42,.4,.84,.81,1.26,1.21,1.2,1.23,2.39,2.47,3.61,3.68,6.01,5.97,10.8,12.92,15.84,19.67,.37,.58,.74,1.16,1.11,1.74,2.4,5.29,6.01,10.07,6.66,16.17-3.28-4.16-6.46-8.4-9.86-12.46-13.52-16.17-29.01-30.06-47.34-40.67-2.32-1.35-3.23-.82-3.7,1.51-.41,1.98-.88,3.96-1.12,5.96-.23,1.96-.21,3.96-.31,6.35-5.32-6.88-6.6-14.37-5.52-22.36,.92-6.8,1.05-6.78,7.08-3.51,1.33,.72,2.71,1.36,4.07,2.03,.66,.39,1.32,.78,1.98,1.17Z"/></g><text class="cls-3" transform="translate(132.6 153.24)"><tspan x="0" y="0">DigiQuest</tspan></text></g></svg>