<?xml version="1.0" encoding="UTF-8"?><svg id="Calque_2" xmlns="http://www.w3.org/2000/svg" viewBox="0 0 97.64 93.18"><defs><style>.cls-1{fill:#40577c;}</style></defs><g id="SLIDE_1"><g><path class="cls-1" d="M56.49,57.52c-6.15,5.93-14.12,8.2-22.64,9.34-2.41,.32-4.84,.55-7.25,.86-.98,.12-1.35-.12-1.39-1.09-.1-2.95,.24-5.84,1.06-8.7,.27-.28,.29-.62,.32-.96,1.2-2.54,2.62-4.96,4.85-6.91l-.02-.03c.29,.8-.41,1.31-.73,1.91-1.39,2.56-2.47,5.19-2.77,8.07-.07,.65,0,.92,.83,.91,6.95-.1,13.78-.79,20.24-3.35,1.58-.63,3.09-1.39,4.4-2.39,3.04-2.33,3.13-5.41,2.2-8.57-1.26-4.28-3.85-7.92-7.04-11.22-7.69-7.95-17.17-13.63-27.59-18.12-3.94-1.7-7.92-3.33-12.05-4.62-.43-.13-.82-.38-1.6-.25,5.62,11.06,11.83,21.66,21.01,30.62-4.1-2.46-7.45-5.71-11.11-8.63-.2-.19-.4-.37-.6-.56-5.26-5.23-10.1-10.74-13.56-17.16-.18-.52-.39-1.02-.8-1.44C1.38,13.07,.59,10.9,.09,8.64-.13,7.64,0,7.11,1.29,7.46c.4,.04,.81,.08,1.22,.13,.24,.08,.48,.17,.73,.22,8.92,1.79,17.36,4.73,25.37,8.75,7.22,3.63,13.49,8.44,19.93,13.05,2.53,1.82,5.18,3.49,8.3,4.37,2.01,.57,3.13,.12,4.13-1.54,1.18-1.96,2.53-3.8,4.19-5.44,2.06-2.03,4.45-3.38,7.68-2.97,1.27,.16,2.32,.78,3.49,1.16,.33,.19,.66,.38,.99,.56,1.76,1.37,3.48,2.79,4.9,4.48,.29,.34,.64,.57,1.11,.7,3.41,.95,6.67,2.24,9.86,3.67,.26,.27,.56,.46,.95,.53,1.17,.92,2.67,1.48,3.5,2.75-.07,.06-.14,.13-.21,.2-.4-.22-.79-.45-1.19-.66-6.08-3.31-12.35-4.44-18.98-1.34-.21,.09-.41,.19-.62,.28-2.47,1.19-4.51,2.84-6.28,4.78-4.64,5.09-8.47,10.74-13.22,15.75l-.66,.63Zm17.41-28.27c-.12-.87-.75-1.33-1.66-1.32-1.04,.01-1.62,.62-1.57,1.56,.05,.88,.67,1.36,1.64,1.35,1.09-.01,1.51-.66,1.59-1.59Z"/><path class="cls-1" d="M51.77,86.42c-2.91-1.36-4.72-3.65-6.26-6.21,.52,2.16,.8,4.29,1.08,6.43,.13,1.04,.13,2.07-.14,3.1-.42,1.65-1.38,2.08-3.09,1.38-1.95-.79-3.17-2.23-4.1-3.91-.7-1.25-1.13-2.6-1.69-3.92-.18,2.38-.21,4.76-.77,7.09-.28,1.14-.37,2.66-1.85,2.81-1.51,.16-2.24-1.22-2.75-2.35-1.33-2.96-1.71-6.11-1.92-9.27-.04-.56,0-1.12-.11-1.7-.68,3.16-1.63,6.23-3.08,9.16-.23,.28-.45,.55-.68,.83-1.89,1.4-3.62,.68-4.24-1.77-.5-1.98-.28-3.94,.15-5.9,.14-.65,.29-1.29,.43-1.94,.06-.17,.13-.34,.19-.51,.92-2.88,1.85-5.76,3.58-8.4-.27,1.16-.52,2.32-.81,3.47-.73,2.9-1.45,5.81-1.48,8.8,0,.78-.49,1.94,.66,2.23,1.06,.26,1.52-.85,1.99-1.53,1.71-2.44,2.86-5.13,3.97-7.83,.23-.57,.48-1.12,.8-1.85,.15,4.33-.12,8.5,.75,12.62,.11,.51,.2,1.03,.4,1.51,.22,.51,.36,1.22,1.09,1.26,.86,.05,1.19-.66,1.49-1.27,.43-.87,.63-1.81,.72-2.75,.28-3.02,.11-6.04-.09-9.17,.81,1.55,1.57,3.04,2.37,4.5,.94,1.74,1.96,3.44,3.39,4.9,.36,.37,.77,.92,1.4,.75,.69-.19,.72-.85,.79-1.42,.35-2.56-.04-5.1-.35-7.63-.29-2.39-.72-4.77-1.09-7.14,.48,.31,.55,.84,.77,1.3,1.5,3.12,3.14,6.17,5.05,9.1,.47,.73,1.02,1.43,1.62,2.08,.55,.6,1.16,1.37,2.19,1,.98-.35,.96-1.28,1-2.08,.09-2.05-.77-3.89-1.66-5.7-1.13-2.28-2.51-4.45-4.06-6.58,.78-.38,1.17,.15,1.6,.47,1.53,1.12,3.01,2.32,4.81,3.1,.46,.2,.96,.52,1.43,.1,.42-.37,.04-.81-.08-1.19-.77-2.46-2.12-4.69-3.38-7.08,.57,.03,.78,.37,1.02,.61,3.41,3.49,6.16,7.35,7.85,11.79,.24,.63,.44,1.26,.33,1.94-.15,.16-.29,.31-.44,.47-.53-.11-1.06-.23-1.59-.34-2.65-1.49-4.63-3.66-6.91-5.52-.11-.25-.28-.33-.53-.15l.4,.31c1.01,1.95,2.02,3.91,3.02,5.86,.36,1.08,.83,2.14,1.06,3.24,.6,2.91-.43,3.75-3.6,3.07-.22-.05-.44-.1-.66-.15Z"/><path class="cls-1" d="M27.44,2.48c4.76,2.67,9.23,5.68,13.4,9.07,.21,.19,.43,.37,.64,.56,.61,.57,1.22,1.15,1.84,1.71,3.07,2.78,5.51,6,8.08,9.14,.19,.27,.38,.54,.56,.81,1.22,2.46,3.07,4.68,3.4,7.52-1.67-1.93-3.3-3.91-5.03-5.79-6.9-7.52-14.81-13.98-24.17-18.91-1.19-.63-1.65-.38-1.89,.7-.21,.92-.45,1.84-.57,2.77-.12,.91-.1,1.84-.16,2.95-2.72-3.2-3.37-6.68-2.82-10.39,.47-3.16,.53-3.15,3.62-1.63,.68,.34,1.38,.63,2.08,.95,.34,.18,.67,.36,1.01,.54Z"/></g></g></svg>